<?xml version="1.0" encoding="utf-8"?>
<!-- Generator: Adobe Illustrator 21.0.0, SVG Export Plug-In . SVG Version: 6.00 Build 0)  -->
<svg version="1.1" id="Ebene_1" xmlns="http://www.w3.org/2000/svg" xmlns:xlink="http://www.w3.org/1999/xlink" x="0px" y="0px"
	 viewBox="0 0 600 710" style="enable-background:new 0 0 600 710;" xml:space="preserve">
<style type="text/css">
	.st0{fill:none;stroke:url(#SVGID_1_);stroke-width:6;stroke-miterlimit:10;}
	.st1{fill:none;stroke:url(#SVGID_2_);stroke-width:6;stroke-miterlimit:10;}
	.st2{fill:none;stroke:url(#SVGID_3_);stroke-width:6;stroke-miterlimit:10;}
	.st3{fill:none;stroke:url(#SVGID_4_);stroke-width:6;stroke-miterlimit:10;}
	.st4{fill:none;stroke:url(#SVGID_5_);stroke-width:6;stroke-miterlimit:10;}
	.st5{fill:none;stroke:url(#SVGID_6_);stroke-width:6;stroke-miterlimit:10;}
	.st6{fill:none;stroke:url(#SVGID_7_);stroke-width:6;stroke-miterlimit:10;}
	.st7{fill:none;stroke:url(#SVGID_8_);stroke-width:6;stroke-miterlimit:10;}
	.st8{fill:none;stroke:url(#SVGID_9_);stroke-width:6;stroke-miterlimit:10;}
	.st9{fill:none;stroke:url(#SVGID_10_);stroke-width:6;stroke-miterlimit:10;}
	.st10{fill:none;stroke:url(#SVGID_11_);stroke-width:6;stroke-miterlimit:10;}
	.st11{fill:none;stroke:url(#SVGID_12_);stroke-width:6;stroke-miterlimit:10;}
	.st12{fill:none;stroke:url(#SVGID_13_);stroke-width:6;stroke-miterlimit:10;}
	.st13{fill:none;stroke:url(#SVGID_14_);stroke-width:6;stroke-miterlimit:10;}
	.st14{fill:none;stroke:url(#SVGID_15_);stroke-width:6;stroke-miterlimit:10;}
	.st15{fill:none;stroke:url(#SVGID_16_);stroke-width:6;stroke-miterlimit:10;}
</style>
<linearGradient id="SVGID_1_" gradientUnits="userSpaceOnUse" x1="545.691" y1="47.175" x2="635.376" y2="47.175">
	<stop  offset="0" style="stop-color:#7BBB58"/>
	<stop  offset="0" style="stop-color:#312783"/>
	<stop  offset="0.3697" style="stop-color:#4D2681"/>
	<stop  offset="0.7698" style="stop-color:#63247E"/>
	<stop  offset="1" style="stop-color:#6B247D"/>
</linearGradient>
<polygon class="st0" points="611.2,11.3 569.8,11.3 549.2,47.2 569.8,83 611.2,83 631.9,47.2 "/>
<linearGradient id="SVGID_2_" gradientUnits="userSpaceOnUse" x1="475.4788" y1="88.2502" x2="565.1638" y2="88.2502">
	<stop  offset="0" style="stop-color:#7BBB58"/>
	<stop  offset="0" style="stop-color:#312783"/>
	<stop  offset="0.3697" style="stop-color:#4D2681"/>
	<stop  offset="0.7698" style="stop-color:#63247E"/>
	<stop  offset="1" style="stop-color:#6B247D"/>
</linearGradient>
<polygon class="st1" points="541,52.4 499.6,52.4 478.9,88.3 499.6,124.1 541,124.1 561.7,88.3 "/>
<linearGradient id="SVGID_3_" gradientUnits="userSpaceOnUse" x1="545.691" y1="128.5632" x2="635.376" y2="128.5632">
	<stop  offset="0" style="stop-color:#7BBB58"/>
	<stop  offset="0" style="stop-color:#312783"/>
	<stop  offset="0.3697" style="stop-color:#4D2681"/>
	<stop  offset="0.7698" style="stop-color:#63247E"/>
	<stop  offset="1" style="stop-color:#6B247D"/>
</linearGradient>
<polygon class="st2" points="611.2,92.7 569.8,92.7 549.2,128.6 569.8,164.4 611.2,164.4 631.9,128.6 "/>
<linearGradient id="SVGID_4_" gradientUnits="userSpaceOnUse" x1="475.4788" y1="169.6384" x2="565.1638" y2="169.6384">
	<stop  offset="0" style="stop-color:#7BBB58"/>
	<stop  offset="0" style="stop-color:#312783"/>
	<stop  offset="0.3697" style="stop-color:#4D2681"/>
	<stop  offset="0.7698" style="stop-color:#63247E"/>
	<stop  offset="1" style="stop-color:#6B247D"/>
</linearGradient>
<polygon class="st3" points="541,133.8 499.6,133.8 478.9,169.6 499.6,205.5 541,205.5 561.7,169.6 "/>
<linearGradient id="SVGID_5_" gradientUnits="userSpaceOnUse" x1="475.7746" y1="251.2963" x2="565.4595" y2="251.2963">
	<stop  offset="0" style="stop-color:#7BBB58"/>
	<stop  offset="0" style="stop-color:#312783"/>
	<stop  offset="0.3697" style="stop-color:#4D2681"/>
	<stop  offset="0.7698" style="stop-color:#63247E"/>
	<stop  offset="1" style="stop-color:#6B247D"/>
</linearGradient>
<polygon class="st4" points="541.3,215.5 499.9,215.5 479.2,251.3 499.9,287.1 541.3,287.1 562,251.3 "/>
<linearGradient id="SVGID_6_" gradientUnits="userSpaceOnUse" x1="475.7746" y1="332.6845" x2="565.4595" y2="332.6845">
	<stop  offset="0" style="stop-color:#7BBB58"/>
	<stop  offset="0" style="stop-color:#312783"/>
	<stop  offset="0.3697" style="stop-color:#4D2681"/>
	<stop  offset="0.7698" style="stop-color:#63247E"/>
	<stop  offset="1" style="stop-color:#6B247D"/>
</linearGradient>
<polygon class="st5" points="541.3,296.8 499.9,296.8 479.2,332.7 499.9,368.5 541.3,368.5 562,332.7 "/>
<linearGradient id="SVGID_7_" gradientUnits="userSpaceOnUse" x1="405.3138" y1="210.6767" x2="494.9987" y2="210.6767">
	<stop  offset="0" style="stop-color:#7BBB58"/>
	<stop  offset="0" style="stop-color:#312783"/>
	<stop  offset="0.3697" style="stop-color:#4D2681"/>
	<stop  offset="0.7698" style="stop-color:#63247E"/>
	<stop  offset="1" style="stop-color:#6B247D"/>
</linearGradient>
<polygon class="st6" points="470.8,174.8 429.5,174.8 408.8,210.7 429.5,246.5 470.8,246.5 491.5,210.7 "/>
<linearGradient id="SVGID_8_" gradientUnits="userSpaceOnUse" x1="335.1015" y1="251.752" x2="424.7865" y2="251.752">
	<stop  offset="0" style="stop-color:#7BBB58"/>
	<stop  offset="0" style="stop-color:#312783"/>
	<stop  offset="0.3697" style="stop-color:#4D2681"/>
	<stop  offset="0.7698" style="stop-color:#63247E"/>
	<stop  offset="1" style="stop-color:#6B247D"/>
</linearGradient>
<polygon class="st7" points="400.6,215.9 359.3,215.9 338.6,251.8 359.3,287.6 400.6,287.6 421.3,251.8 "/>
<linearGradient id="SVGID_9_" gradientUnits="userSpaceOnUse" x1="263.9468" y1="48.2387" x2="353.6318" y2="48.2387">
	<stop  offset="0" style="stop-color:#7BBB58"/>
	<stop  offset="0" style="stop-color:#312783"/>
	<stop  offset="0.3697" style="stop-color:#4D2681"/>
	<stop  offset="0.7698" style="stop-color:#63247E"/>
	<stop  offset="1" style="stop-color:#6B247D"/>
</linearGradient>
<polygon class="st8" points="329.5,12.4 288.1,12.4 267.4,48.2 288.1,84.1 329.5,84.1 350.2,48.2 "/>
<linearGradient id="SVGID_10_" gradientUnits="userSpaceOnUse" x1="264.2426" y1="211.2848" x2="353.9276" y2="211.2848">
	<stop  offset="0" style="stop-color:#7BBB58"/>
	<stop  offset="0" style="stop-color:#312783"/>
	<stop  offset="0.3697" style="stop-color:#4D2681"/>
	<stop  offset="0.7698" style="stop-color:#63247E"/>
	<stop  offset="1" style="stop-color:#6B247D"/>
</linearGradient>
<polygon class="st9" points="329.8,175.5 288.4,175.5 267.7,211.3 288.4,247.1 329.8,247.1 350.5,211.3 "/>
<linearGradient id="SVGID_11_" gradientUnits="userSpaceOnUse" x1="194.0303" y1="252.36" x2="283.7153" y2="252.36">
	<stop  offset="0" style="stop-color:#7BBB58"/>
	<stop  offset="0" style="stop-color:#312783"/>
	<stop  offset="0.3697" style="stop-color:#4D2681"/>
	<stop  offset="0.7698" style="stop-color:#63247E"/>
	<stop  offset="1" style="stop-color:#6B247D"/>
</linearGradient>
<polygon class="st10" points="259.6,216.5 218.2,216.5 197.5,252.4 218.2,288.2 259.6,288.2 280.3,252.4 "/>
<linearGradient id="SVGID_12_" gradientUnits="userSpaceOnUse" x1="475.7746" y1="414.1653" x2="565.4595" y2="414.1653">
	<stop  offset="0" style="stop-color:#7BBB58"/>
	<stop  offset="0" style="stop-color:#312783"/>
	<stop  offset="0.3697" style="stop-color:#4D2681"/>
	<stop  offset="0.7698" style="stop-color:#63247E"/>
	<stop  offset="1" style="stop-color:#6B247D"/>
</linearGradient>
<polygon class="st11" points="541.3,378.3 499.9,378.3 479.2,414.2 499.9,450 541.3,450 562,414.2 "/>
<linearGradient id="SVGID_13_" gradientUnits="userSpaceOnUse" x1="405.3138" y1="373.5457" x2="494.9987" y2="373.5457">
	<stop  offset="0" style="stop-color:#7BBB58"/>
	<stop  offset="0" style="stop-color:#312783"/>
	<stop  offset="0.3697" style="stop-color:#4D2681"/>
	<stop  offset="0.7698" style="stop-color:#63247E"/>
	<stop  offset="1" style="stop-color:#6B247D"/>
</linearGradient>
<polygon class="st12" points="470.8,337.7 429.5,337.7 408.8,373.5 429.5,409.4 470.8,409.4 491.5,373.5 "/>
<linearGradient id="SVGID_14_" gradientUnits="userSpaceOnUse" x1="194.0303" y1="333.7744" x2="283.7153" y2="333.7744">
	<stop  offset="0" style="stop-color:#7BBB58"/>
	<stop  offset="0" style="stop-color:#312783"/>
	<stop  offset="0.3697" style="stop-color:#4D2681"/>
	<stop  offset="0.7698" style="stop-color:#63247E"/>
	<stop  offset="1" style="stop-color:#6B247D"/>
</linearGradient>
<polygon class="st13" points="259.6,297.9 218.2,297.9 197.5,333.8 218.2,369.6 259.6,369.6 280.3,333.8 "/>
<linearGradient id="SVGID_15_" gradientUnits="userSpaceOnUse" x1="123.1618" y1="211.06" x2="212.8467" y2="211.06">
	<stop  offset="0" style="stop-color:#7BBB58"/>
	<stop  offset="0" style="stop-color:#312783"/>
	<stop  offset="0.3697" style="stop-color:#4D2681"/>
	<stop  offset="0.7698" style="stop-color:#63247E"/>
	<stop  offset="1" style="stop-color:#6B247D"/>
</linearGradient>
<polygon class="st14" points="188.7,175.2 147.3,175.2 126.6,211.1 147.3,246.9 188.7,246.9 209.4,211.1 "/>
<linearGradient id="SVGID_16_" gradientUnits="userSpaceOnUse" x1="122.8746" y1="374.9698" x2="212.5596" y2="374.9698">
	<stop  offset="0" style="stop-color:#7BBB58"/>
	<stop  offset="0" style="stop-color:#312783"/>
	<stop  offset="0.3697" style="stop-color:#4D2681"/>
	<stop  offset="0.7698" style="stop-color:#63247E"/>
	<stop  offset="1" style="stop-color:#6B247D"/>
</linearGradient>
<polygon class="st15" points="188.4,339.1 147,339.1 126.3,375 147,410.8 188.4,410.8 209.1,375 "/>
</svg>
