<?xml version="1.0" encoding="utf-8"?>
<!-- Generator: Adobe Illustrator 21.0.0, SVG Export Plug-In . SVG Version: 6.00 Build 0)  -->
<svg version="1.1" id="Ebene_1" xmlns="http://www.w3.org/2000/svg" xmlns:xlink="http://www.w3.org/1999/xlink" x="0px" y="0px"
	 viewBox="0 0 1280 720" style="enable-background:new 0 0 1280 720;" xml:space="preserve">
<style type="text/css">
	.st0{fill:none;stroke:url(#SVGID_1_);stroke-width:17;stroke-miterlimit:10;}
	.st1{fill:none;stroke:url(#SVGID_2_);stroke-width:17;stroke-miterlimit:10;}
	.st2{fill:none;stroke:url(#SVGID_3_);stroke-width:17;stroke-miterlimit:10;}
	.st3{fill:none;stroke:url(#SVGID_4_);stroke-width:17;stroke-miterlimit:10;}
	.st4{fill:none;stroke:url(#SVGID_5_);stroke-width:17;stroke-miterlimit:10;}
</style>
<linearGradient id="SVGID_1_" gradientUnits="userSpaceOnUse" x1="774.52" y1="398.8885" x2="1203.8149" y2="398.8885">
	<stop  offset="0" style="stop-color:#7BBB58"/>
	<stop  offset="0" style="stop-color:#312783"/>
	<stop  offset="0.3697" style="stop-color:#4D2681"/>
	<stop  offset="0.7698" style="stop-color:#63247E"/>
	<stop  offset="1" style="stop-color:#6B247D"/>
</linearGradient>
<polygon class="st0" points="1091.6,221.5 886.8,221.5 784.3,398.9 886.8,576.3 1091.6,576.3 1194,398.9 "/>
<linearGradient id="SVGID_2_" gradientUnits="userSpaceOnUse" x1="423.7519" y1="198.5669" x2="853.0468" y2="198.5669">
	<stop  offset="0" style="stop-color:#7BBB58"/>
	<stop  offset="0" style="stop-color:#312783"/>
	<stop  offset="0.3697" style="stop-color:#4D2681"/>
	<stop  offset="0.7698" style="stop-color:#63247E"/>
	<stop  offset="1" style="stop-color:#6B247D"/>
</linearGradient>
<polygon class="st1" points="740.8,21.2 536,21.2 433.6,198.6 536,376 740.8,376 843.2,198.6 "/>
<linearGradient id="SVGID_3_" gradientUnits="userSpaceOnUse" x1="76.185" y1="401.8986" x2="505.48" y2="401.8986">
	<stop  offset="0" style="stop-color:#7BBB58"/>
	<stop  offset="0" style="stop-color:#312783"/>
	<stop  offset="0.3697" style="stop-color:#4D2681"/>
	<stop  offset="0.7698" style="stop-color:#63247E"/>
	<stop  offset="1" style="stop-color:#6B247D"/>
</linearGradient>
<polygon class="st2" points="393.2,224.5 188.4,224.5 86,401.9 188.4,579.3 393.2,579.3 495.7,401.9 "/>
<linearGradient id="SVGID_4_" gradientUnits="userSpaceOnUse" x1="-269.8149" y1="600.8986" x2="159.48" y2="600.8986">
	<stop  offset="0" style="stop-color:#7BBB58"/>
	<stop  offset="0" style="stop-color:#312783"/>
	<stop  offset="0.3697" style="stop-color:#4D2681"/>
	<stop  offset="0.7698" style="stop-color:#63247E"/>
	<stop  offset="1" style="stop-color:#6B247D"/>
</linearGradient>
<polygon class="st3" points="47.2,423.5 -157.6,423.5 -260,600.9 -157.6,778.3 47.2,778.3 149.7,600.9 "/>
<linearGradient id="SVGID_5_" gradientUnits="userSpaceOnUse" x1="1118.1851" y1="597.8986" x2="1547.48" y2="597.8986">
	<stop  offset="0" style="stop-color:#7BBB58"/>
	<stop  offset="0" style="stop-color:#312783"/>
	<stop  offset="0.3697" style="stop-color:#4D2681"/>
	<stop  offset="0.7698" style="stop-color:#63247E"/>
	<stop  offset="1" style="stop-color:#6B247D"/>
</linearGradient>
<polygon class="st4" points="1435.2,420.5 1230.4,420.5 1128,597.9 1230.4,775.3 1435.2,775.3 1537.7,597.9 "/>
</svg>
