<?xml version="1.0" encoding="utf-8"?>
<!-- Generator: Adobe Illustrator 21.0.0, SVG Export Plug-In . SVG Version: 6.00 Build 0)  -->
<svg version="1.1" id="Ebene_1" xmlns="http://www.w3.org/2000/svg" xmlns:xlink="http://www.w3.org/1999/xlink" x="0px" y="0px"
	 viewBox="0 0 1280 500" style="enable-background:new 0 0 1280 500;" xml:space="preserve">
<style type="text/css">
	.st0{fill:none;stroke:url(#SVGID_1_);stroke-width:7;stroke-miterlimit:10;}
	.st1{fill:none;stroke:url(#SVGID_2_);stroke-width:7;stroke-miterlimit:10;}
	.st2{fill:none;stroke:url(#SVGID_3_);stroke-width:7;stroke-miterlimit:10;}
	.st3{fill:none;stroke:url(#SVGID_4_);stroke-width:7;stroke-miterlimit:10;}
	.st4{fill:none;stroke:url(#SVGID_5_);stroke-width:7;stroke-miterlimit:10;}
	.st5{fill:none;stroke:url(#SVGID_6_);stroke-width:7;stroke-miterlimit:10;}
	.st6{fill:none;stroke:url(#SVGID_7_);stroke-width:7;stroke-miterlimit:10;}
	.st7{fill:none;stroke:url(#SVGID_8_);stroke-width:7;stroke-miterlimit:10;}
	.st8{fill:none;stroke:url(#SVGID_9_);stroke-width:7;stroke-miterlimit:10;}
	.st9{fill:none;stroke:url(#SVGID_10_);stroke-width:7;stroke-miterlimit:10;}
	.st10{fill:none;stroke:url(#SVGID_11_);stroke-width:7;stroke-miterlimit:10;}
	.st11{fill:none;stroke:url(#SVGID_12_);stroke-width:7;stroke-miterlimit:10;}
	.st12{fill:none;stroke:url(#SVGID_13_);stroke-width:7;stroke-miterlimit:10;}
	.st13{fill:none;stroke:url(#SVGID_14_);stroke-width:7;stroke-miterlimit:10;}
	.st14{fill:none;stroke:url(#SVGID_15_);stroke-width:7;stroke-miterlimit:10;}
	.st15{fill:none;stroke:url(#SVGID_16_);stroke-width:7;stroke-miterlimit:10;}
	.st16{fill:none;stroke:url(#SVGID_17_);stroke-width:7;stroke-miterlimit:10;}
	.st17{fill:none;stroke:url(#SVGID_18_);stroke-width:7;stroke-miterlimit:10;}
	.st18{fill:none;stroke:url(#SVGID_19_);stroke-width:7;stroke-miterlimit:10;}
	.st19{fill:none;stroke:url(#SVGID_20_);stroke-width:7;stroke-miterlimit:10;}
	.st20{fill:none;stroke:url(#SVGID_21_);stroke-width:7;stroke-miterlimit:10;}
	.st21{fill:none;stroke:url(#SVGID_22_);stroke-width:7;stroke-miterlimit:10;}
	.st22{fill:none;stroke:url(#SVGID_23_);stroke-width:7;stroke-miterlimit:10;}
	.st23{fill:none;stroke:url(#SVGID_24_);stroke-width:7;stroke-miterlimit:10;}
	.st24{fill:none;stroke:url(#SVGID_25_);stroke-width:7;stroke-miterlimit:10;}
	.st25{fill:none;stroke:url(#SVGID_26_);stroke-width:7;stroke-miterlimit:10;}
	.st26{fill:none;stroke:url(#SVGID_27_);stroke-width:7;stroke-miterlimit:10;}
	.st27{fill:none;stroke:url(#SVGID_28_);stroke-width:7;stroke-miterlimit:10;}
	.st28{fill:none;stroke:url(#SVGID_29_);stroke-width:7;stroke-miterlimit:10;}
	.st29{fill:none;stroke:url(#SVGID_30_);stroke-width:7;stroke-miterlimit:10;}
	.st30{fill:none;stroke:url(#SVGID_31_);stroke-width:7;stroke-miterlimit:10;}
	.st31{fill:none;stroke:url(#SVGID_32_);stroke-width:7;stroke-miterlimit:10;}
	.st32{fill:none;stroke:url(#SVGID_33_);stroke-width:7;stroke-miterlimit:10;}
	.st33{fill:none;stroke:url(#SVGID_34_);stroke-width:7;stroke-miterlimit:10;}
	.st34{fill:none;stroke:url(#SVGID_35_);stroke-width:7;stroke-miterlimit:10;}
	.st35{fill:none;stroke:url(#SVGID_36_);stroke-width:7;stroke-miterlimit:10;}
	.st36{fill:none;stroke:url(#SVGID_37_);stroke-width:7;stroke-miterlimit:10;}
	.st37{fill:none;stroke:url(#SVGID_38_);stroke-width:7;stroke-miterlimit:10;}
	.st38{fill:none;stroke:url(#SVGID_39_);stroke-width:7;stroke-miterlimit:10;}
	.st39{fill:none;stroke:url(#SVGID_40_);stroke-width:7;stroke-miterlimit:10;}
	.st40{fill:none;stroke:url(#SVGID_41_);stroke-width:7;stroke-miterlimit:10;}
	.st41{fill:none;stroke:url(#SVGID_42_);stroke-width:7;stroke-miterlimit:10;}
</style>
<linearGradient id="SVGID_1_" gradientUnits="userSpaceOnUse" x1="-1094.0415" y1="146.5123" x2="-948.9244" y2="146.5123">
	<stop  offset="0" style="stop-color:#7BBB58"/>
	<stop  offset="0" style="stop-color:#625CA5"/>
	<stop  offset="1" style="stop-color:#75227D"/>
</linearGradient>
<polygon class="st0" points="-987.2,87.2 -1055.7,87.2 -1090,146.5 -1055.7,205.8 -987.2,205.8 -953,146.5 "/>
<linearGradient id="SVGID_2_" gradientUnits="userSpaceOnUse" x1="-981.152" y1="211.3529" x2="-836.035" y2="211.3529">
	<stop  offset="0" style="stop-color:#7BBB58"/>
	<stop  offset="0" style="stop-color:#625CA5"/>
	<stop  offset="1" style="stop-color:#75227D"/>
</linearGradient>
<polygon class="st1" points="-874.3,152 -942.9,152 -977.1,211.4 -942.9,270.7 -874.3,270.7 -840.1,211.4 "/>
<linearGradient id="SVGID_3_" gradientUnits="userSpaceOnUse" x1="-870.1611" y1="145.6433" x2="-725.044" y2="145.6433">
	<stop  offset="0" style="stop-color:#7BBB58"/>
	<stop  offset="0" style="stop-color:#625CA5"/>
	<stop  offset="1" style="stop-color:#75227D"/>
</linearGradient>
<polygon class="st2" points="-763.3,86.3 -831.9,86.3 -866.1,145.6 -831.9,205 -763.3,205 -729.1,145.6 "/>
<linearGradient id="SVGID_4_" gradientUnits="userSpaceOnUse" x1="-757.2717" y1="210.4838" x2="-612.1546" y2="210.4838">
	<stop  offset="0" style="stop-color:#7BBB58"/>
	<stop  offset="0" style="stop-color:#625CA5"/>
	<stop  offset="1" style="stop-color:#75227D"/>
</linearGradient>
<polygon class="st3" points="-650.5,151.1 -719,151.1 -753.2,210.5 -719,269.8 -650.5,269.8 -616.2,210.5 "/>
<linearGradient id="SVGID_5_" gradientUnits="userSpaceOnUse" x1="-647.4037" y1="144.5871" x2="-502.2866" y2="144.5871">
	<stop  offset="0" style="stop-color:#7BBB58"/>
	<stop  offset="0" style="stop-color:#625CA5"/>
	<stop  offset="1" style="stop-color:#75227D"/>
</linearGradient>
<polygon class="st4" points="-540.6,85.2 -609.1,85.2 -643.4,144.6 -609.1,203.9 -540.6,203.9 -506.3,144.6 "/>
<linearGradient id="SVGID_6_" gradientUnits="userSpaceOnUse" x1="-534.5143" y1="209.4277" x2="-389.3972" y2="209.4277">
	<stop  offset="0" style="stop-color:#7BBB58"/>
	<stop  offset="0" style="stop-color:#625CA5"/>
	<stop  offset="1" style="stop-color:#75227D"/>
</linearGradient>
<polygon class="st5" points="-427.7,150.1 -496.2,150.1 -530.5,209.4 -496.2,268.8 -427.7,268.8 -393.4,209.4 "/>
<linearGradient id="SVGID_7_" gradientUnits="userSpaceOnUse" x1="-423.5233" y1="143.7181" x2="-278.4062" y2="143.7181">
	<stop  offset="0" style="stop-color:#7BBB58"/>
	<stop  offset="0" style="stop-color:#625CA5"/>
	<stop  offset="1" style="stop-color:#75227D"/>
</linearGradient>
<polygon class="st6" points="-316.7,84.4 -385.2,84.4 -419.5,143.7 -385.2,203.1 -316.7,203.1 -282.4,143.7 "/>
<linearGradient id="SVGID_8_" gradientUnits="userSpaceOnUse" x1="-310.6339" y1="208.5587" x2="-165.5168" y2="208.5587">
	<stop  offset="0" style="stop-color:#7BBB58"/>
	<stop  offset="0" style="stop-color:#625CA5"/>
	<stop  offset="1" style="stop-color:#75227D"/>
</linearGradient>
<polygon class="st7" points="-203.8,149.2 -272.3,149.2 -306.6,208.6 -272.3,267.9 -203.8,267.9 -169.6,208.6 "/>
<linearGradient id="SVGID_9_" gradientUnits="userSpaceOnUse" x1="-85.9513" y1="207.5025" x2="59.1658" y2="207.5025">
	<stop  offset="0" style="stop-color:#7BBB58"/>
	<stop  offset="0" style="stop-color:#625CA5"/>
	<stop  offset="1" style="stop-color:#75227D"/>
</linearGradient>
<polygon class="st8" points="20.9,148.2 -47.7,148.2 -81.9,207.5 -47.7,266.8 20.9,266.8 55.1,207.5 "/>
<linearGradient id="SVGID_10_" gradientUnits="userSpaceOnUse" x1="25.0397" y1="141.7929" x2="170.1568" y2="141.7929">
	<stop  offset="0" style="stop-color:#7BBB58"/>
	<stop  offset="0" style="stop-color:#625CA5"/>
	<stop  offset="1" style="stop-color:#75227D"/>
</linearGradient>
<polygon class="st9" points="131.9,82.5 63.3,82.5 29.1,141.8 63.3,201.1 131.9,201.1 166.1,141.8 "/>
<linearGradient id="SVGID_11_" gradientUnits="userSpaceOnUse" x1="137.9291" y1="206.6335" x2="283.0462" y2="206.6335">
	<stop  offset="0" style="stop-color:#7BBB58"/>
	<stop  offset="0" style="stop-color:#625CA5"/>
	<stop  offset="1" style="stop-color:#75227D"/>
</linearGradient>
<polygon class="st10" points="244.7,147.3 176.2,147.3 142,206.6 176.2,266 244.7,266 279,206.6 "/>
<linearGradient id="SVGID_12_" gradientUnits="userSpaceOnUse" x1="-1093.881" y1="274.0544" x2="-948.764" y2="274.0544">
	<stop  offset="0" style="stop-color:#7BBB58"/>
	<stop  offset="0" style="stop-color:#625CA5"/>
	<stop  offset="1" style="stop-color:#75227D"/>
</linearGradient>
<polygon class="st11" points="-987.1,214.7 -1055.6,214.7 -1089.8,274.1 -1055.6,333.4 -987.1,333.4 -952.8,274.1 "/>
<linearGradient id="SVGID_13_" gradientUnits="userSpaceOnUse" x1="-982.4088" y1="340.3922" x2="-837.2917" y2="340.3922">
	<stop  offset="0" style="stop-color:#7BBB58"/>
	<stop  offset="0" style="stop-color:#625CA5"/>
	<stop  offset="1" style="stop-color:#75227D"/>
</linearGradient>
<polygon class="st12" points="-875.6,281.1 -944.1,281.1 -978.4,340.4 -944.1,399.7 -875.6,399.7 -841.3,340.4 "/>
<linearGradient id="SVGID_14_" gradientUnits="userSpaceOnUse" x1="-870.0006" y1="275.1105" x2="-724.8835" y2="275.1105">
	<stop  offset="0" style="stop-color:#7BBB58"/>
	<stop  offset="0" style="stop-color:#625CA5"/>
	<stop  offset="1" style="stop-color:#75227D"/>
</linearGradient>
<polygon class="st13" points="-763.2,215.8 -831.7,215.8 -866,275.1 -831.7,334.4 -763.2,334.4 -728.9,275.1 "/>
<linearGradient id="SVGID_15_" gradientUnits="userSpaceOnUse" x1="-645.3181" y1="274.0544" x2="-500.201" y2="274.0544">
	<stop  offset="0" style="stop-color:#7BBB58"/>
	<stop  offset="0" style="stop-color:#625CA5"/>
	<stop  offset="1" style="stop-color:#75227D"/>
</linearGradient>
<polygon class="st14" points="-538.5,214.7 -607,214.7 -641.3,274.1 -607,333.4 -538.5,333.4 -504.2,274.1 "/>
<linearGradient id="SVGID_16_" gradientUnits="userSpaceOnUse" x1="-533.8458" y1="338.4671" x2="-388.7287" y2="338.4671">
	<stop  offset="0" style="stop-color:#7BBB58"/>
	<stop  offset="0" style="stop-color:#625CA5"/>
	<stop  offset="1" style="stop-color:#75227D"/>
</linearGradient>
<polygon class="st15" points="-427,279.1 -495.5,279.1 -529.8,338.5 -495.5,397.8 -427,397.8 -392.8,338.5 "/>
<linearGradient id="SVGID_17_" gradientUnits="userSpaceOnUse" x1="-421.4377" y1="273.1853" x2="-276.3206" y2="273.1853">
	<stop  offset="0" style="stop-color:#7BBB58"/>
	<stop  offset="0" style="stop-color:#625CA5"/>
	<stop  offset="1" style="stop-color:#75227D"/>
</linearGradient>
<polygon class="st16" points="-314.6,213.8 -383.1,213.8 -417.4,273.2 -383.1,332.5 -314.6,332.5 -280.4,273.2 "/>
<linearGradient id="SVGID_18_" gradientUnits="userSpaceOnUse" x1="-309.9654" y1="337.5981" x2="-164.8483" y2="337.5981">
	<stop  offset="0" style="stop-color:#7BBB58"/>
	<stop  offset="0" style="stop-color:#625CA5"/>
	<stop  offset="1" style="stop-color:#75227D"/>
</linearGradient>
<polygon class="st17" points="-203.1,278.3 -271.7,278.3 -305.9,337.6 -271.7,396.9 -203.1,396.9 -168.9,337.6 "/>
<linearGradient id="SVGID_19_" gradientUnits="userSpaceOnUse" x1="-196.7551" y1="272.1292" x2="-51.6381" y2="272.1292">
	<stop  offset="0" style="stop-color:#7BBB58"/>
	<stop  offset="0" style="stop-color:#625CA5"/>
	<stop  offset="1" style="stop-color:#75227D"/>
</linearGradient>
<polygon class="st18" points="-89.9,212.8 -158.5,212.8 -192.7,272.1 -158.5,331.5 -89.9,331.5 -55.7,272.1 "/>
<linearGradient id="SVGID_20_" gradientUnits="userSpaceOnUse" x1="-85.2828" y1="336.5419" x2="59.8342" y2="336.5419">
	<stop  offset="0" style="stop-color:#7BBB58"/>
	<stop  offset="0" style="stop-color:#625CA5"/>
	<stop  offset="1" style="stop-color:#75227D"/>
</linearGradient>
<polygon class="st19" points="21.5,277.2 -47,277.2 -81.2,336.5 -47,395.9 21.5,395.9 55.8,336.5 "/>
<linearGradient id="SVGID_21_" gradientUnits="userSpaceOnUse" x1="27.1253" y1="271.2601" x2="172.2423" y2="271.2601">
	<stop  offset="0" style="stop-color:#7BBB58"/>
	<stop  offset="0" style="stop-color:#625CA5"/>
	<stop  offset="1" style="stop-color:#75227D"/>
</linearGradient>
<polygon class="st20" points="133.9,211.9 65.4,211.9 31.2,271.3 65.4,330.6 133.9,330.6 168.2,271.3 "/>
<linearGradient id="SVGID_22_" gradientUnits="userSpaceOnUse" x1="138.5975" y1="335.6729" x2="283.7146" y2="335.6729">
	<stop  offset="0" style="stop-color:#7BBB58"/>
	<stop  offset="0" style="stop-color:#625CA5"/>
	<stop  offset="1" style="stop-color:#75227D"/>
</linearGradient>
<polygon class="st21" points="245.4,276.3 176.9,276.3 142.6,335.7 176.9,395 245.4,395 279.7,335.7 "/>
<linearGradient id="SVGID_23_" gradientUnits="userSpaceOnUse" x1="249.7222" y1="142.662" x2="394.8393" y2="142.662">
	<stop  offset="0" style="stop-color:#7BBB58"/>
	<stop  offset="0" style="stop-color:#625CA5"/>
	<stop  offset="1" style="stop-color:#75227D"/>
</linearGradient>
<polygon class="st22" points="356.5,83.3 288,83.3 253.8,142.7 288,202 356.5,202 390.8,142.7 "/>
<linearGradient id="SVGID_24_" gradientUnits="userSpaceOnUse" x1="362.6116" y1="207.5025" x2="507.7287" y2="207.5025">
	<stop  offset="0" style="stop-color:#7BBB58"/>
	<stop  offset="0" style="stop-color:#625CA5"/>
	<stop  offset="1" style="stop-color:#75227D"/>
</linearGradient>
<polygon class="st23" points="469.4,148.2 400.9,148.2 366.7,207.5 400.9,266.8 469.4,266.8 503.7,207.5 "/>
<linearGradient id="SVGID_25_" gradientUnits="userSpaceOnUse" x1="473.6026" y1="141.7929" x2="618.7197" y2="141.7929">
	<stop  offset="0" style="stop-color:#7BBB58"/>
	<stop  offset="0" style="stop-color:#625CA5"/>
	<stop  offset="1" style="stop-color:#75227D"/>
</linearGradient>
<polygon class="st24" points="580.4,82.5 511.9,82.5 477.6,141.8 511.9,201.1 580.4,201.1 614.7,141.8 "/>
<linearGradient id="SVGID_26_" gradientUnits="userSpaceOnUse" x1="586.4921" y1="206.6335" x2="731.6091" y2="206.6335">
	<stop  offset="0" style="stop-color:#7BBB58"/>
	<stop  offset="0" style="stop-color:#625CA5"/>
	<stop  offset="1" style="stop-color:#75227D"/>
</linearGradient>
<polygon class="st25" points="693.3,147.3 624.8,147.3 590.5,206.6 624.8,266 693.3,266 727.6,206.6 "/>
<linearGradient id="SVGID_27_" gradientUnits="userSpaceOnUse" x1="696.36" y1="140.7368" x2="841.4771" y2="140.7368">
	<stop  offset="0" style="stop-color:#7BBB58"/>
	<stop  offset="0" style="stop-color:#625CA5"/>
	<stop  offset="1" style="stop-color:#75227D"/>
</linearGradient>
<polygon class="st26" points="803.2,81.4 734.7,81.4 700.4,140.7 734.7,200.1 803.2,200.1 837.4,140.7 "/>
<linearGradient id="SVGID_28_" gradientUnits="userSpaceOnUse" x1="809.2495" y1="205.5774" x2="954.3665" y2="205.5774">
	<stop  offset="0" style="stop-color:#7BBB58"/>
	<stop  offset="0" style="stop-color:#625CA5"/>
	<stop  offset="1" style="stop-color:#75227D"/>
</linearGradient>
<polygon class="st27" points="916.1,146.2 847.5,146.2 813.3,205.6 847.5,264.9 916.1,264.9 950.3,205.6 "/>
<linearGradient id="SVGID_29_" gradientUnits="userSpaceOnUse" x1="920.2404" y1="139.8678" x2="1065.3575" y2="139.8678">
	<stop  offset="0" style="stop-color:#7BBB58"/>
	<stop  offset="0" style="stop-color:#625CA5"/>
	<stop  offset="1" style="stop-color:#75227D"/>
</linearGradient>
<polygon class="st28" points="1027.1,80.5 958.5,80.5 924.3,139.9 958.5,199.2 1027.1,199.2 1061.3,139.9 "/>
<linearGradient id="SVGID_30_" gradientUnits="userSpaceOnUse" x1="1033.1299" y1="204.7083" x2="1178.2469" y2="204.7083">
	<stop  offset="0" style="stop-color:#7BBB58"/>
	<stop  offset="0" style="stop-color:#625CA5"/>
	<stop  offset="1" style="stop-color:#75227D"/>
</linearGradient>
<polygon class="st29" points="1139.9,145.4 1071.4,145.4 1037.2,204.7 1071.4,264 1139.9,264 1174.2,204.7 "/>
<linearGradient id="SVGID_31_" gradientUnits="userSpaceOnUse" x1="1257.8124" y1="203.6522" x2="1402.9294" y2="203.6522">
	<stop  offset="0" style="stop-color:#7BBB58"/>
	<stop  offset="0" style="stop-color:#625CA5"/>
	<stop  offset="1" style="stop-color:#75227D"/>
</linearGradient>
<polygon class="st30" points="1364.6,144.3 1296.1,144.3 1261.9,203.7 1296.1,263 1364.6,263 1398.9,203.7 "/>
<linearGradient id="SVGID_32_" gradientUnits="userSpaceOnUse" x1="1368.8033" y1="137.9426" x2="1513.9204" y2="137.9426">
	<stop  offset="0" style="stop-color:#7BBB58"/>
	<stop  offset="0" style="stop-color:#625CA5"/>
	<stop  offset="1" style="stop-color:#75227D"/>
</linearGradient>
<polygon class="st31" points="1475.6,78.6 1407.1,78.6 1372.8,137.9 1407.1,197.3 1475.6,197.3 1509.9,137.9 "/>
<linearGradient id="SVGID_33_" gradientUnits="userSpaceOnUse" x1="249.8827" y1="270.204" x2="394.9997" y2="270.204">
	<stop  offset="0" style="stop-color:#7BBB58"/>
	<stop  offset="0" style="stop-color:#625CA5"/>
	<stop  offset="1" style="stop-color:#75227D"/>
</linearGradient>
<polygon class="st32" points="356.7,210.9 288.2,210.9 253.9,270.2 288.2,329.5 356.7,329.5 391,270.2 "/>
<linearGradient id="SVGID_34_" gradientUnits="userSpaceOnUse" x1="361.3549" y1="336.5419" x2="506.472" y2="336.5419">
	<stop  offset="0" style="stop-color:#7BBB58"/>
	<stop  offset="0" style="stop-color:#625CA5"/>
	<stop  offset="1" style="stop-color:#75227D"/>
</linearGradient>
<polygon class="st33" points="468.2,277.2 399.7,277.2 365.4,336.5 399.7,395.9 468.2,395.9 502.4,336.5 "/>
<linearGradient id="SVGID_35_" gradientUnits="userSpaceOnUse" x1="585.2354" y1="335.6729" x2="730.3524" y2="335.6729">
	<stop  offset="0" style="stop-color:#7BBB58"/>
	<stop  offset="0" style="stop-color:#625CA5"/>
	<stop  offset="1" style="stop-color:#75227D"/>
</linearGradient>
<polygon class="st34" points="692.1,276.3 623.5,276.3 589.3,335.7 623.5,395 692.1,395 726.3,335.7 "/>
<linearGradient id="SVGID_36_" gradientUnits="userSpaceOnUse" x1="698.4456" y1="270.204" x2="843.5627" y2="270.204">
	<stop  offset="0" style="stop-color:#7BBB58"/>
	<stop  offset="0" style="stop-color:#625CA5"/>
	<stop  offset="1" style="stop-color:#75227D"/>
</linearGradient>
<polygon class="st35" points="805.3,210.9 736.7,210.9 702.5,270.2 736.7,329.5 805.3,329.5 839.5,270.2 "/>
<linearGradient id="SVGID_37_" gradientUnits="userSpaceOnUse" x1="809.9179" y1="334.6168" x2="955.035" y2="334.6168">
	<stop  offset="0" style="stop-color:#7BBB58"/>
	<stop  offset="0" style="stop-color:#625CA5"/>
	<stop  offset="1" style="stop-color:#75227D"/>
</linearGradient>
<polygon class="st36" points="916.7,275.3 848.2,275.3 814,334.6 848.2,394 916.7,394 951,334.6 "/>
<linearGradient id="SVGID_38_" gradientUnits="userSpaceOnUse" x1="922.326" y1="269.335" x2="1067.4431" y2="269.335">
	<stop  offset="0" style="stop-color:#7BBB58"/>
	<stop  offset="0" style="stop-color:#625CA5"/>
	<stop  offset="1" style="stop-color:#75227D"/>
</linearGradient>
<polygon class="st37" points="1029.1,210 960.6,210 926.4,269.3 960.6,328.7 1029.1,328.7 1063.4,269.3 "/>
<linearGradient id="SVGID_39_" gradientUnits="userSpaceOnUse" x1="1033.7983" y1="333.7477" x2="1178.9154" y2="333.7477">
	<stop  offset="0" style="stop-color:#7BBB58"/>
	<stop  offset="0" style="stop-color:#625CA5"/>
	<stop  offset="1" style="stop-color:#75227D"/>
</linearGradient>
<polygon class="st38" points="1140.6,274.4 1072.1,274.4 1037.8,333.7 1072.1,393.1 1140.6,393.1 1174.9,333.7 "/>
<linearGradient id="SVGID_40_" gradientUnits="userSpaceOnUse" x1="1147.0085" y1="268.2788" x2="1292.1256" y2="268.2788">
	<stop  offset="0" style="stop-color:#7BBB58"/>
	<stop  offset="0" style="stop-color:#625CA5"/>
	<stop  offset="1" style="stop-color:#75227D"/>
</linearGradient>
<polygon class="st39" points="1253.8,208.9 1185.3,208.9 1151.1,268.3 1185.3,327.6 1253.8,327.6 1288.1,268.3 "/>
<linearGradient id="SVGID_41_" gradientUnits="userSpaceOnUse" x1="1258.4808" y1="332.6916" x2="1403.5979" y2="332.6916">
	<stop  offset="0" style="stop-color:#7BBB58"/>
	<stop  offset="0" style="stop-color:#625CA5"/>
	<stop  offset="1" style="stop-color:#75227D"/>
</linearGradient>
<polygon class="st40" points="1365.3,273.4 1296.8,273.4 1262.5,332.7 1296.8,392 1365.3,392 1399.6,332.7 "/>
<linearGradient id="SVGID_42_" gradientUnits="userSpaceOnUse" x1="1370.8889" y1="267.4098" x2="1516.006" y2="267.4098">
	<stop  offset="0" style="stop-color:#7BBB58"/>
	<stop  offset="0" style="stop-color:#625CA5"/>
	<stop  offset="1" style="stop-color:#75227D"/>
</linearGradient>
<polygon class="st41" points="1477.7,208.1 1409.2,208.1 1374.9,267.4 1409.2,326.7 1477.7,326.7 1512,267.4 "/>
</svg>
