<?xml version="1.0" encoding="utf-8"?>
<!-- Generator: Adobe Illustrator 21.0.0, SVG Export Plug-In . SVG Version: 6.00 Build 0)  -->
<svg version="1.1" id="Ebene_1" xmlns="http://www.w3.org/2000/svg" xmlns:xlink="http://www.w3.org/1999/xlink" x="0px" y="0px"
	 viewBox="0 0 1280 500" style="enable-background:new 0 0 1280 500;" xml:space="preserve">
<style type="text/css">
	.st0{fill:none;stroke:url(#SVGID_1_);stroke-width:7;stroke-miterlimit:10;}
	.st1{fill:none;stroke:url(#SVGID_2_);stroke-width:7;stroke-miterlimit:10;}
	.st2{fill:none;stroke:url(#SVGID_3_);stroke-width:7;stroke-miterlimit:10;}
	.st3{fill:none;stroke:url(#SVGID_4_);stroke-width:7;stroke-miterlimit:10;}
	.st4{fill:none;stroke:url(#SVGID_5_);stroke-width:7;stroke-miterlimit:10;}
	.st5{fill:none;stroke:url(#SVGID_6_);stroke-width:7;stroke-miterlimit:10;}
	.st6{fill:none;stroke:url(#SVGID_7_);stroke-width:7;stroke-miterlimit:10;}
	.st7{fill:none;stroke:url(#SVGID_8_);stroke-width:7;stroke-miterlimit:10;}
	.st8{fill:none;stroke:url(#SVGID_9_);stroke-width:7;stroke-miterlimit:10;}
	.st9{fill:none;stroke:url(#SVGID_10_);stroke-width:7;stroke-miterlimit:10;}
	.st10{fill:none;stroke:url(#SVGID_11_);stroke-width:7;stroke-miterlimit:10;}
	.st11{fill:none;stroke:url(#SVGID_12_);stroke-width:7;stroke-miterlimit:10;}
	.st12{fill:none;stroke:url(#SVGID_13_);stroke-width:7;stroke-miterlimit:10;}
	.st13{fill:none;stroke:url(#SVGID_14_);stroke-width:7;stroke-miterlimit:10;}
	.st14{fill:none;stroke:url(#SVGID_15_);stroke-width:7;stroke-miterlimit:10;}
	.st15{fill:none;stroke:url(#SVGID_16_);stroke-width:7;stroke-miterlimit:10;}
	.st16{fill:none;stroke:url(#SVGID_17_);stroke-width:7;stroke-miterlimit:10;}
	.st17{fill:none;stroke:url(#SVGID_18_);stroke-width:7;stroke-miterlimit:10;}
	.st18{fill:none;stroke:url(#SVGID_19_);stroke-width:7;stroke-miterlimit:10;}
	.st19{fill:none;stroke:url(#SVGID_20_);stroke-width:7;stroke-miterlimit:10;}
	.st20{fill:none;stroke:url(#SVGID_21_);stroke-width:7;stroke-miterlimit:10;}
	.st21{fill:none;stroke:url(#SVGID_22_);stroke-width:7;stroke-miterlimit:10;}
	.st22{fill:none;stroke:url(#SVGID_23_);stroke-width:7;stroke-miterlimit:10;}
	.st23{fill:none;stroke:url(#SVGID_24_);stroke-width:7;stroke-miterlimit:10;}
	.st24{fill:none;stroke:url(#SVGID_25_);stroke-width:7;stroke-miterlimit:10;}
	.st25{fill:none;stroke:url(#SVGID_26_);stroke-width:7;stroke-miterlimit:10;}
	.st26{fill:none;stroke:url(#SVGID_27_);stroke-width:7;stroke-miterlimit:10;}
	.st27{fill:none;stroke:url(#SVGID_28_);stroke-width:7;stroke-miterlimit:10;}
	.st28{fill:none;stroke:url(#SVGID_29_);stroke-width:7;stroke-miterlimit:10;}
	.st29{fill:none;stroke:url(#SVGID_30_);stroke-width:7;stroke-miterlimit:10;}
	.st30{fill:none;stroke:url(#SVGID_31_);stroke-width:7;stroke-miterlimit:10;}
	.st31{fill:none;stroke:url(#SVGID_32_);stroke-width:7;stroke-miterlimit:10;}
	.st32{fill:none;stroke:url(#SVGID_33_);stroke-width:7;stroke-miterlimit:10;}
	.st33{fill:none;stroke:url(#SVGID_34_);stroke-width:7;stroke-miterlimit:10;}
	.st34{fill:none;stroke:url(#SVGID_35_);stroke-width:7;stroke-miterlimit:10;}
	.st35{fill:none;stroke:url(#SVGID_36_);stroke-width:7;stroke-miterlimit:10;}
	.st36{fill:none;stroke:url(#SVGID_37_);stroke-width:7;stroke-miterlimit:10;}
	.st37{fill:none;stroke:url(#SVGID_38_);stroke-width:7;stroke-miterlimit:10;}
	.st38{fill:none;stroke:url(#SVGID_39_);stroke-width:7;stroke-miterlimit:10;}
	.st39{fill:none;stroke:url(#SVGID_40_);stroke-width:7;stroke-miterlimit:10;}
	.st40{fill:none;stroke:url(#SVGID_41_);stroke-width:7;stroke-miterlimit:10;}
	.st41{fill:none;stroke:url(#SVGID_42_);stroke-width:7;stroke-miterlimit:10;}
</style>
<linearGradient id="SVGID_1_" gradientUnits="userSpaceOnUse" x1="-1132.0415" y1="151.7369" x2="-958.2197" y2="151.7369">
	<stop  offset="0" style="stop-color:#7BBB58"/>
	<stop  offset="0" style="stop-color:#312783"/>
	<stop  offset="0.3697" style="stop-color:#4D2681"/>
	<stop  offset="0.7698" style="stop-color:#63247E"/>
	<stop  offset="1" style="stop-color:#6B247D"/>
</linearGradient>
<polygon class="st0" points="-1003.7,80 -1086.6,80 -1128,151.7 -1086.6,223.5 -1003.7,223.5 -962.3,151.7 "/>
<linearGradient id="SVGID_2_" gradientUnits="userSpaceOnUse" x1="-995.505" y1="230.1596" x2="-821.6833" y2="230.1596">
	<stop  offset="0" style="stop-color:#7BBB58"/>
	<stop  offset="0" style="stop-color:#312783"/>
	<stop  offset="0.3697" style="stop-color:#4D2681"/>
	<stop  offset="0.7698" style="stop-color:#63247E"/>
	<stop  offset="1" style="stop-color:#6B247D"/>
</linearGradient>
<polygon class="st1" points="-867.2,158.4 -950,158.4 -991.5,230.2 -950,301.9 -867.2,301.9 -825.7,230.2 "/>
<linearGradient id="SVGID_3_" gradientUnits="userSpaceOnUse" x1="-861.2646" y1="150.6858" x2="-687.4429" y2="150.6858">
	<stop  offset="0" style="stop-color:#7BBB58"/>
	<stop  offset="0" style="stop-color:#312783"/>
	<stop  offset="0.3697" style="stop-color:#4D2681"/>
	<stop  offset="0.7698" style="stop-color:#63247E"/>
	<stop  offset="1" style="stop-color:#6B247D"/>
</linearGradient>
<polygon class="st2" points="-732.9,78.9 -815.8,78.9 -857.2,150.7 -815.8,222.5 -732.9,222.5 -691.5,150.7 "/>
<linearGradient id="SVGID_4_" gradientUnits="userSpaceOnUse" x1="-724.7282" y1="229.1086" x2="-550.9065" y2="229.1086">
	<stop  offset="0" style="stop-color:#7BBB58"/>
	<stop  offset="0" style="stop-color:#312783"/>
	<stop  offset="0.3697" style="stop-color:#4D2681"/>
	<stop  offset="0.7698" style="stop-color:#63247E"/>
	<stop  offset="1" style="stop-color:#6B247D"/>
</linearGradient>
<polygon class="st3" points="-596.4,157.3 -679.3,157.3 -720.7,229.1 -679.3,300.9 -596.4,300.9 -554.9,229.1 "/>
<linearGradient id="SVGID_5_" gradientUnits="userSpaceOnUse" x1="-591.8461" y1="149.4084" x2="-418.0244" y2="149.4084">
	<stop  offset="0" style="stop-color:#7BBB58"/>
	<stop  offset="0" style="stop-color:#312783"/>
	<stop  offset="0.3697" style="stop-color:#4D2681"/>
	<stop  offset="0.7698" style="stop-color:#63247E"/>
	<stop  offset="1" style="stop-color:#6B247D"/>
</linearGradient>
<polygon class="st4" points="-463.5,77.6 -546.4,77.6 -587.8,149.4 -546.4,221.2 -463.5,221.2 -422.1,149.4 "/>
<linearGradient id="SVGID_6_" gradientUnits="userSpaceOnUse" x1="-455.3097" y1="227.8312" x2="-281.488" y2="227.8312">
	<stop  offset="0" style="stop-color:#7BBB58"/>
	<stop  offset="0" style="stop-color:#312783"/>
	<stop  offset="0.3697" style="stop-color:#4D2681"/>
	<stop  offset="0.7698" style="stop-color:#63247E"/>
	<stop  offset="1" style="stop-color:#6B247D"/>
</linearGradient>
<polygon class="st5" points="-327,156.1 -409.8,156.1 -451.3,227.8 -409.8,299.6 -327,299.6 -285.5,227.8 "/>
<linearGradient id="SVGID_7_" gradientUnits="userSpaceOnUse" x1="-321.0693" y1="148.3574" x2="-147.2476" y2="148.3574">
	<stop  offset="0" style="stop-color:#7BBB58"/>
	<stop  offset="0" style="stop-color:#312783"/>
	<stop  offset="0.3697" style="stop-color:#4D2681"/>
	<stop  offset="0.7698" style="stop-color:#63247E"/>
	<stop  offset="1" style="stop-color:#6B247D"/>
</linearGradient>
<polygon class="st6" points="-192.7,76.6 -275.6,76.6 -317,148.4 -275.6,220.1 -192.7,220.1 -151.3,148.4 "/>
<linearGradient id="SVGID_8_" gradientUnits="userSpaceOnUse" x1="-184.5329" y1="226.7801" x2="-10.7112" y2="226.7801">
	<stop  offset="0" style="stop-color:#7BBB58"/>
	<stop  offset="0" style="stop-color:#312783"/>
	<stop  offset="0.3697" style="stop-color:#4D2681"/>
	<stop  offset="0.7698" style="stop-color:#63247E"/>
	<stop  offset="1" style="stop-color:#6B247D"/>
</linearGradient>
<polygon class="st7" points="-56.2,155 -139.1,155 -180.5,226.8 -139.1,298.5 -56.2,298.5 -14.8,226.8 "/>
<linearGradient id="SVGID_9_" gradientUnits="userSpaceOnUse" x1="87.2141" y1="225.5028" x2="261.0358" y2="225.5028">
	<stop  offset="0" style="stop-color:#7BBB58"/>
	<stop  offset="0" style="stop-color:#312783"/>
	<stop  offset="0.3697" style="stop-color:#4D2681"/>
	<stop  offset="0.7698" style="stop-color:#63247E"/>
	<stop  offset="1" style="stop-color:#6B247D"/>
</linearGradient>
<polygon class="st8" points="215.6,153.7 132.7,153.7 91.3,225.5 132.7,297.3 215.6,297.3 257,225.5 "/>
<linearGradient id="SVGID_10_" gradientUnits="userSpaceOnUse" x1="221.4544" y1="146.0289" x2="395.2762" y2="146.0289">
	<stop  offset="0" style="stop-color:#7BBB58"/>
	<stop  offset="0" style="stop-color:#312783"/>
	<stop  offset="0.3697" style="stop-color:#4D2681"/>
	<stop  offset="0.7698" style="stop-color:#63247E"/>
	<stop  offset="1" style="stop-color:#6B247D"/>
</linearGradient>
<polygon class="st9" points="349.8,74.3 266.9,74.3 225.5,146 266.9,217.8 349.8,217.8 391.2,146 "/>
<linearGradient id="SVGID_11_" gradientUnits="userSpaceOnUse" x1="357.9909" y1="224.4517" x2="531.8126" y2="224.4517">
	<stop  offset="0" style="stop-color:#7BBB58"/>
	<stop  offset="0" style="stop-color:#312783"/>
	<stop  offset="0.3697" style="stop-color:#4D2681"/>
	<stop  offset="0.7698" style="stop-color:#63247E"/>
	<stop  offset="1" style="stop-color:#6B247D"/>
</linearGradient>
<polygon class="st10" points="486.3,152.7 403.5,152.7 362,224.5 403.5,296.2 486.3,296.2 527.8,224.5 "/>
<linearGradient id="SVGID_12_" gradientUnits="userSpaceOnUse" x1="-1131.8474" y1="305.9952" x2="-958.0257" y2="305.9952">
	<stop  offset="0" style="stop-color:#7BBB58"/>
	<stop  offset="0" style="stop-color:#312783"/>
	<stop  offset="0.3697" style="stop-color:#4D2681"/>
	<stop  offset="0.7698" style="stop-color:#63247E"/>
	<stop  offset="1" style="stop-color:#6B247D"/>
</linearGradient>
<polygon class="st11" points="-1003.5,234.2 -1086.4,234.2 -1127.8,306 -1086.4,377.8 -1003.5,377.8 -962.1,306 "/>
<linearGradient id="SVGID_13_" gradientUnits="userSpaceOnUse" x1="-997.025" y1="386.229" x2="-823.2032" y2="386.229">
	<stop  offset="0" style="stop-color:#7BBB58"/>
	<stop  offset="0" style="stop-color:#312783"/>
	<stop  offset="0.3697" style="stop-color:#4D2681"/>
	<stop  offset="0.7698" style="stop-color:#63247E"/>
	<stop  offset="1" style="stop-color:#6B247D"/>
</linearGradient>
<polygon class="st12" points="-868.7,314.5 -951.5,314.5 -993,386.2 -951.5,458 -868.7,458 -827.2,386.2 "/>
<linearGradient id="SVGID_14_" gradientUnits="userSpaceOnUse" x1="-861.0706" y1="307.2726" x2="-687.2489" y2="307.2726">
	<stop  offset="0" style="stop-color:#7BBB58"/>
	<stop  offset="0" style="stop-color:#312783"/>
	<stop  offset="0.3697" style="stop-color:#4D2681"/>
	<stop  offset="0.7698" style="stop-color:#63247E"/>
	<stop  offset="1" style="stop-color:#6B247D"/>
</linearGradient>
<polygon class="st13" points="-732.7,235.5 -815.6,235.5 -857,307.3 -815.6,379 -732.7,379 -691.3,307.3 "/>
<linearGradient id="SVGID_15_" gradientUnits="userSpaceOnUse" x1="-589.3237" y1="305.9952" x2="-415.502" y2="305.9952">
	<stop  offset="0" style="stop-color:#7BBB58"/>
	<stop  offset="0" style="stop-color:#312783"/>
	<stop  offset="0.3697" style="stop-color:#4D2681"/>
	<stop  offset="0.7698" style="stop-color:#63247E"/>
	<stop  offset="1" style="stop-color:#6B247D"/>
</linearGradient>
<polygon class="st14" points="-461,234.2 -543.8,234.2 -585.3,306 -543.8,377.8 -461,377.8 -419.5,306 "/>
<linearGradient id="SVGID_16_" gradientUnits="userSpaceOnUse" x1="-454.5012" y1="383.9006" x2="-280.6795" y2="383.9006">
	<stop  offset="0" style="stop-color:#7BBB58"/>
	<stop  offset="0" style="stop-color:#312783"/>
	<stop  offset="0.3697" style="stop-color:#4D2681"/>
	<stop  offset="0.7698" style="stop-color:#63247E"/>
	<stop  offset="1" style="stop-color:#6B247D"/>
</linearGradient>
<polygon class="st15" points="-326.2,312.1 -409,312.1 -450.5,383.9 -409,455.7 -326.2,455.7 -284.7,383.9 "/>
<linearGradient id="SVGID_17_" gradientUnits="userSpaceOnUse" x1="-318.5469" y1="304.9442" x2="-144.7252" y2="304.9442">
	<stop  offset="0" style="stop-color:#7BBB58"/>
	<stop  offset="0" style="stop-color:#312783"/>
	<stop  offset="0.3697" style="stop-color:#4D2681"/>
	<stop  offset="0.7698" style="stop-color:#63247E"/>
	<stop  offset="1" style="stop-color:#6B247D"/>
</linearGradient>
<polygon class="st16" points="-190.2,233.2 -273.1,233.2 -314.5,304.9 -273.1,376.7 -190.2,376.7 -148.8,304.9 "/>
<linearGradient id="SVGID_18_" gradientUnits="userSpaceOnUse" x1="-183.7244" y1="382.8495" x2="-9.9027" y2="382.8495">
	<stop  offset="0" style="stop-color:#7BBB58"/>
	<stop  offset="0" style="stop-color:#312783"/>
	<stop  offset="0.3697" style="stop-color:#4D2681"/>
	<stop  offset="0.7698" style="stop-color:#63247E"/>
	<stop  offset="1" style="stop-color:#6B247D"/>
</linearGradient>
<polygon class="st17" points="-55.4,311.1 -138.2,311.1 -179.7,382.8 -138.2,454.6 -55.4,454.6 -13.9,382.8 "/>
<linearGradient id="SVGID_19_" gradientUnits="userSpaceOnUse" x1="-46.7999" y1="303.6668" x2="127.0218" y2="303.6668">
	<stop  offset="0" style="stop-color:#7BBB58"/>
	<stop  offset="0" style="stop-color:#312783"/>
	<stop  offset="0.3697" style="stop-color:#4D2681"/>
	<stop  offset="0.7698" style="stop-color:#63247E"/>
	<stop  offset="1" style="stop-color:#6B247D"/>
</linearGradient>
<polygon class="st18" points="81.5,231.9 -1.3,231.9 -42.8,303.7 -1.3,375.4 81.5,375.4 123,303.7 "/>
<linearGradient id="SVGID_20_" gradientUnits="userSpaceOnUse" x1="88.0226" y1="381.5721" x2="261.8443" y2="381.5721">
	<stop  offset="0" style="stop-color:#7BBB58"/>
	<stop  offset="0" style="stop-color:#312783"/>
	<stop  offset="0.3697" style="stop-color:#4D2681"/>
	<stop  offset="0.7698" style="stop-color:#63247E"/>
	<stop  offset="1" style="stop-color:#6B247D"/>
</linearGradient>
<polygon class="st19" points="216.4,309.8 133.5,309.8 92.1,381.6 133.5,453.3 216.4,453.3 257.8,381.6 "/>
<linearGradient id="SVGID_21_" gradientUnits="userSpaceOnUse" x1="223.9769" y1="302.6158" x2="397.7986" y2="302.6158">
	<stop  offset="0" style="stop-color:#7BBB58"/>
	<stop  offset="0" style="stop-color:#312783"/>
	<stop  offset="0.3697" style="stop-color:#4D2681"/>
	<stop  offset="0.7698" style="stop-color:#63247E"/>
	<stop  offset="1" style="stop-color:#6B247D"/>
</linearGradient>
<polygon class="st20" points="352.3,230.8 269.5,230.8 228,302.6 269.5,374.4 352.3,374.4 393.8,302.6 "/>
<linearGradient id="SVGID_22_" gradientUnits="userSpaceOnUse" x1="358.7993" y1="380.5211" x2="532.621" y2="380.5211">
	<stop  offset="0" style="stop-color:#7BBB58"/>
	<stop  offset="0" style="stop-color:#312783"/>
	<stop  offset="0.3697" style="stop-color:#4D2681"/>
	<stop  offset="0.7698" style="stop-color:#63247E"/>
	<stop  offset="1" style="stop-color:#6B247D"/>
</linearGradient>
<polygon class="st21" points="487.1,308.8 404.3,308.8 362.8,380.5 404.3,452.3 487.1,452.3 528.6,380.5 "/>
<linearGradient id="SVGID_23_" gradientUnits="userSpaceOnUse" x1="493.2014" y1="147.08" x2="667.0231" y2="147.08">
	<stop  offset="0" style="stop-color:#7BBB58"/>
	<stop  offset="0" style="stop-color:#312783"/>
	<stop  offset="0.3697" style="stop-color:#4D2681"/>
	<stop  offset="0.7698" style="stop-color:#63247E"/>
	<stop  offset="1" style="stop-color:#6B247D"/>
</linearGradient>
<polygon class="st22" points="621.5,75.3 538.7,75.3 497.2,147.1 538.7,218.8 621.5,218.8 663,147.1 "/>
<linearGradient id="SVGID_24_" gradientUnits="userSpaceOnUse" x1="629.7379" y1="225.5028" x2="803.5596" y2="225.5028">
	<stop  offset="0" style="stop-color:#7BBB58"/>
	<stop  offset="0" style="stop-color:#312783"/>
	<stop  offset="0.3697" style="stop-color:#4D2681"/>
	<stop  offset="0.7698" style="stop-color:#63247E"/>
	<stop  offset="1" style="stop-color:#6B247D"/>
</linearGradient>
<polygon class="st23" points="758.1,153.7 675.2,153.7 633.8,225.5 675.2,297.3 758.1,297.3 799.5,225.5 "/>
<linearGradient id="SVGID_25_" gradientUnits="userSpaceOnUse" x1="763.9782" y1="146.0289" x2="937.7999" y2="146.0289">
	<stop  offset="0" style="stop-color:#7BBB58"/>
	<stop  offset="0" style="stop-color:#312783"/>
	<stop  offset="0.3697" style="stop-color:#4D2681"/>
	<stop  offset="0.7698" style="stop-color:#63247E"/>
	<stop  offset="1" style="stop-color:#6B247D"/>
</linearGradient>
<polygon class="st24" points="892.3,74.3 809.5,74.3 768,146 809.5,217.8 892.3,217.8 933.8,146 "/>
<linearGradient id="SVGID_26_" gradientUnits="userSpaceOnUse" x1="900.5146" y1="224.4517" x2="1074.3363" y2="224.4517">
	<stop  offset="0" style="stop-color:#7BBB58"/>
	<stop  offset="0" style="stop-color:#312783"/>
	<stop  offset="0.3697" style="stop-color:#4D2681"/>
	<stop  offset="0.7698" style="stop-color:#63247E"/>
	<stop  offset="1" style="stop-color:#6B247D"/>
</linearGradient>
<polygon class="st25" points="1028.9,152.7 946,152.7 904.6,224.5 946,296.2 1028.9,296.2 1070.3,224.5 "/>
<linearGradient id="SVGID_27_" gradientUnits="userSpaceOnUse" x1="1033.3967" y1="144.7516" x2="1207.2184" y2="144.7516">
	<stop  offset="0" style="stop-color:#7BBB58"/>
	<stop  offset="0" style="stop-color:#312783"/>
	<stop  offset="0.3697" style="stop-color:#4D2681"/>
	<stop  offset="0.7698" style="stop-color:#63247E"/>
	<stop  offset="1" style="stop-color:#6B247D"/>
</linearGradient>
<polygon class="st26" points="1161.7,73 1078.9,73 1037.4,144.8 1078.9,216.5 1161.7,216.5 1203.2,144.8 "/>
<linearGradient id="SVGID_28_" gradientUnits="userSpaceOnUse" x1="1169.9331" y1="223.1743" x2="1343.7549" y2="223.1743">
	<stop  offset="0" style="stop-color:#7BBB58"/>
	<stop  offset="0" style="stop-color:#312783"/>
	<stop  offset="0.3697" style="stop-color:#4D2681"/>
	<stop  offset="0.7698" style="stop-color:#63247E"/>
	<stop  offset="1" style="stop-color:#6B247D"/>
</linearGradient>
<polygon class="st27" points="1298.3,151.4 1215.4,151.4 1174,223.2 1215.4,294.9 1298.3,294.9 1339.7,223.2 "/>
<linearGradient id="SVGID_29_" gradientUnits="userSpaceOnUse" x1="1304.1735" y1="143.7005" x2="1477.9952" y2="143.7005">
	<stop  offset="0" style="stop-color:#7BBB58"/>
	<stop  offset="0" style="stop-color:#312783"/>
	<stop  offset="0.3697" style="stop-color:#4D2681"/>
	<stop  offset="0.7698" style="stop-color:#63247E"/>
	<stop  offset="1" style="stop-color:#6B247D"/>
</linearGradient>
<polygon class="st28" points="1432.5,71.9 1349.6,71.9 1308.2,143.7 1349.6,215.5 1432.5,215.5 1474,143.7 "/>
<linearGradient id="SVGID_30_" gradientUnits="userSpaceOnUse" x1="1440.71" y1="222.1233" x2="1614.5316" y2="222.1233">
	<stop  offset="0" style="stop-color:#7BBB58"/>
	<stop  offset="0" style="stop-color:#312783"/>
	<stop  offset="0.3697" style="stop-color:#4D2681"/>
	<stop  offset="0.7698" style="stop-color:#63247E"/>
	<stop  offset="1" style="stop-color:#6B247D"/>
</linearGradient>
<polygon class="st29" points="1569.1,150.4 1486.2,150.4 1444.8,222.1 1486.2,293.9 1569.1,293.9 1610.5,222.1 "/>
<linearGradient id="SVGID_31_" gradientUnits="userSpaceOnUse" x1="1712.4569" y1="220.8459" x2="1886.2787" y2="220.8459">
	<stop  offset="0" style="stop-color:#7BBB58"/>
	<stop  offset="0" style="stop-color:#312783"/>
	<stop  offset="0.3697" style="stop-color:#4D2681"/>
	<stop  offset="0.7698" style="stop-color:#63247E"/>
	<stop  offset="1" style="stop-color:#6B247D"/>
</linearGradient>
<polygon class="st30" points="1840.8,149.1 1757.9,149.1 1716.5,220.8 1757.9,292.6 1840.8,292.6 1882.2,220.8 "/>
<linearGradient id="SVGID_32_" gradientUnits="userSpaceOnUse" x1="1846.6973" y1="141.3721" x2="2020.519" y2="141.3721">
	<stop  offset="0" style="stop-color:#7BBB58"/>
	<stop  offset="0" style="stop-color:#312783"/>
	<stop  offset="0.3697" style="stop-color:#4D2681"/>
	<stop  offset="0.7698" style="stop-color:#63247E"/>
	<stop  offset="1" style="stop-color:#6B247D"/>
</linearGradient>
<polygon class="st31" points="1975,69.6 1892.2,69.6 1850.7,141.4 1892.2,213.1 1975,213.1 2016.5,141.4 "/>
<linearGradient id="SVGID_33_" gradientUnits="userSpaceOnUse" x1="493.3954" y1="301.3384" x2="667.2172" y2="301.3384">
	<stop  offset="0" style="stop-color:#7BBB58"/>
	<stop  offset="0" style="stop-color:#312783"/>
	<stop  offset="0.3697" style="stop-color:#4D2681"/>
	<stop  offset="0.7698" style="stop-color:#63247E"/>
	<stop  offset="1" style="stop-color:#6B247D"/>
</linearGradient>
<polygon class="st32" points="621.7,229.6 538.9,229.6 497.4,301.3 538.9,373.1 621.7,373.1 663.2,301.3 "/>
<linearGradient id="SVGID_34_" gradientUnits="userSpaceOnUse" x1="628.2179" y1="381.5721" x2="802.0396" y2="381.5721">
	<stop  offset="0" style="stop-color:#7BBB58"/>
	<stop  offset="0" style="stop-color:#312783"/>
	<stop  offset="0.3697" style="stop-color:#4D2681"/>
	<stop  offset="0.7698" style="stop-color:#63247E"/>
	<stop  offset="1" style="stop-color:#6B247D"/>
</linearGradient>
<polygon class="st33" points="756.6,309.8 673.7,309.8 632.3,381.6 673.7,453.3 756.6,453.3 798,381.6 "/>
<linearGradient id="SVGID_35_" gradientUnits="userSpaceOnUse" x1="898.9947" y1="380.5211" x2="1072.8164" y2="380.5211">
	<stop  offset="0" style="stop-color:#7BBB58"/>
	<stop  offset="0" style="stop-color:#312783"/>
	<stop  offset="0.3697" style="stop-color:#4D2681"/>
	<stop  offset="0.7698" style="stop-color:#63247E"/>
	<stop  offset="1" style="stop-color:#6B247D"/>
</linearGradient>
<polygon class="st34" points="1027.3,308.8 944.5,308.8 903,380.5 944.5,452.3 1027.3,452.3 1068.8,380.5 "/>
<linearGradient id="SVGID_36_" gradientUnits="userSpaceOnUse" x1="1035.9192" y1="301.3384" x2="1209.7408" y2="301.3384">
	<stop  offset="0" style="stop-color:#7BBB58"/>
	<stop  offset="0" style="stop-color:#312783"/>
	<stop  offset="0.3697" style="stop-color:#4D2681"/>
	<stop  offset="0.7698" style="stop-color:#63247E"/>
	<stop  offset="1" style="stop-color:#6B247D"/>
</linearGradient>
<polygon class="st35" points="1164.3,229.6 1081.4,229.6 1040,301.3 1081.4,373.1 1164.3,373.1 1205.7,301.3 "/>
<linearGradient id="SVGID_37_" gradientUnits="userSpaceOnUse" x1="1170.7417" y1="379.2437" x2="1344.5634" y2="379.2437">
	<stop  offset="0" style="stop-color:#7BBB58"/>
	<stop  offset="0" style="stop-color:#312783"/>
	<stop  offset="0.3697" style="stop-color:#4D2681"/>
	<stop  offset="0.7698" style="stop-color:#63247E"/>
	<stop  offset="1" style="stop-color:#6B247D"/>
</linearGradient>
<polygon class="st36" points="1299.1,307.5 1216.2,307.5 1174.8,379.2 1216.2,451 1299.1,451 1340.5,379.2 "/>
<linearGradient id="SVGID_38_" gradientUnits="userSpaceOnUse" x1="1306.6959" y1="300.2873" x2="1480.5177" y2="300.2873">
	<stop  offset="0" style="stop-color:#7BBB58"/>
	<stop  offset="0" style="stop-color:#312783"/>
	<stop  offset="0.3697" style="stop-color:#4D2681"/>
	<stop  offset="0.7698" style="stop-color:#63247E"/>
	<stop  offset="1" style="stop-color:#6B247D"/>
</linearGradient>
<polygon class="st37" points="1435,228.5 1352.2,228.5 1310.7,300.3 1352.2,372.1 1435,372.1 1476.5,300.3 "/>
<linearGradient id="SVGID_39_" gradientUnits="userSpaceOnUse" x1="1441.5184" y1="378.1926" x2="1615.3402" y2="378.1926">
	<stop  offset="0" style="stop-color:#7BBB58"/>
	<stop  offset="0" style="stop-color:#312783"/>
	<stop  offset="0.3697" style="stop-color:#4D2681"/>
	<stop  offset="0.7698" style="stop-color:#63247E"/>
	<stop  offset="1" style="stop-color:#6B247D"/>
</linearGradient>
<polygon class="st38" points="1569.9,306.4 1487,306.4 1445.6,378.2 1487,450 1569.9,450 1611.3,378.2 "/>
<linearGradient id="SVGID_40_" gradientUnits="userSpaceOnUse" x1="1578.443" y1="299.0099" x2="1752.2646" y2="299.0099">
	<stop  offset="0" style="stop-color:#7BBB58"/>
	<stop  offset="0" style="stop-color:#312783"/>
	<stop  offset="0.3697" style="stop-color:#4D2681"/>
	<stop  offset="0.7698" style="stop-color:#63247E"/>
	<stop  offset="1" style="stop-color:#6B247D"/>
</linearGradient>
<polygon class="st39" points="1706.8,227.2 1623.9,227.2 1582.5,299 1623.9,370.8 1706.8,370.8 1748.2,299 "/>
<linearGradient id="SVGID_41_" gradientUnits="userSpaceOnUse" x1="1713.2654" y1="376.9153" x2="1887.0872" y2="376.9153">
	<stop  offset="0" style="stop-color:#7BBB58"/>
	<stop  offset="0" style="stop-color:#312783"/>
	<stop  offset="0.3697" style="stop-color:#4D2681"/>
	<stop  offset="0.7698" style="stop-color:#63247E"/>
	<stop  offset="1" style="stop-color:#6B247D"/>
</linearGradient>
<polygon class="st40" points="1841.6,305.1 1758.7,305.1 1717.3,376.9 1758.7,448.7 1841.6,448.7 1883,376.9 "/>
<linearGradient id="SVGID_42_" gradientUnits="userSpaceOnUse" x1="1849.2197" y1="297.9589" x2="2023.0415" y2="297.9589">
	<stop  offset="0" style="stop-color:#7BBB58"/>
	<stop  offset="0" style="stop-color:#312783"/>
	<stop  offset="0.3697" style="stop-color:#4D2681"/>
	<stop  offset="0.7698" style="stop-color:#63247E"/>
	<stop  offset="1" style="stop-color:#6B247D"/>
</linearGradient>
<polygon class="st41" points="1977.6,226.2 1894.7,226.2 1853.3,298 1894.7,369.7 1977.6,369.7 2019,298 "/>
</svg>
