<?xml version="1.0" encoding="utf-8"?>
<!-- Generator: Adobe Illustrator 21.0.0, SVG Export Plug-In . SVG Version: 6.00 Build 0)  -->
<svg version="1.1" id="Ebene_1" xmlns="http://www.w3.org/2000/svg" xmlns:xlink="http://www.w3.org/1999/xlink" x="0px" y="0px"
	 viewBox="0 0 1280 500" style="enable-background:new 0 0 1280 500;" xml:space="preserve">
<style type="text/css">
	.st0{fill:none;stroke:url(#SVGID_1_);stroke-width:7;stroke-miterlimit:10;}
	.st1{fill:none;stroke:url(#SVGID_2_);stroke-width:7;stroke-miterlimit:10;}
	.st2{fill:none;stroke:url(#SVGID_3_);stroke-width:7;stroke-miterlimit:10;}
	.st3{fill:none;stroke:url(#SVGID_4_);stroke-width:7;stroke-miterlimit:10;}
	.st4{fill:none;stroke:url(#SVGID_5_);stroke-width:7;stroke-miterlimit:10;}
	.st5{fill:none;stroke:url(#SVGID_6_);stroke-width:7;stroke-miterlimit:10;}
	.st6{fill:none;stroke:url(#SVGID_7_);stroke-width:7;stroke-miterlimit:10;}
	.st7{fill:none;stroke:url(#SVGID_8_);stroke-width:7;stroke-miterlimit:10;}
	.st8{fill:none;stroke:url(#SVGID_9_);stroke-width:7;stroke-miterlimit:10;}
	.st9{fill:none;stroke:url(#SVGID_10_);stroke-width:7;stroke-miterlimit:10;}
	.st10{fill:none;stroke:url(#SVGID_11_);stroke-width:7;stroke-miterlimit:10;}
	.st11{fill:none;stroke:url(#SVGID_12_);stroke-width:7;stroke-miterlimit:10;}
	.st12{fill:none;stroke:url(#SVGID_13_);stroke-width:7;stroke-miterlimit:10;}
	.st13{fill:none;stroke:url(#SVGID_14_);stroke-width:7;stroke-miterlimit:10;}
	.st14{fill:none;stroke:url(#SVGID_15_);stroke-width:7;stroke-miterlimit:10;}
	.st15{fill:none;stroke:url(#SVGID_16_);stroke-width:7;stroke-miterlimit:10;}
	.st16{fill:none;stroke:url(#SVGID_17_);stroke-width:7;stroke-miterlimit:10;}
	.st17{fill:none;stroke:url(#SVGID_18_);stroke-width:7;stroke-miterlimit:10;}
	.st18{fill:none;stroke:url(#SVGID_19_);stroke-width:7;stroke-miterlimit:10;}
	.st19{fill:none;stroke:url(#SVGID_20_);stroke-width:7;stroke-miterlimit:10;}
	.st20{fill:none;stroke:url(#SVGID_21_);stroke-width:7;stroke-miterlimit:10;}
	.st21{fill:none;stroke:url(#SVGID_22_);stroke-width:7;stroke-miterlimit:10;}
	.st22{fill:none;stroke:url(#SVGID_23_);stroke-width:7;stroke-miterlimit:10;}
	.st23{fill:none;stroke:url(#SVGID_24_);stroke-width:7;stroke-miterlimit:10;}
	.st24{fill:none;stroke:url(#SVGID_25_);stroke-width:7;stroke-miterlimit:10;}
	.st25{fill:none;stroke:url(#SVGID_26_);stroke-width:7;stroke-miterlimit:10;}
	.st26{fill:none;stroke:url(#SVGID_27_);stroke-width:7;stroke-miterlimit:10;}
	.st27{fill:none;stroke:url(#SVGID_28_);stroke-width:7;stroke-miterlimit:10;}
	.st28{fill:none;stroke:url(#SVGID_29_);stroke-width:7;stroke-miterlimit:10;}
	.st29{fill:none;stroke:url(#SVGID_30_);stroke-width:7;stroke-miterlimit:10;}
	.st30{fill:none;stroke:url(#SVGID_31_);stroke-width:7;stroke-miterlimit:10;}
	.st31{fill:none;stroke:url(#SVGID_32_);stroke-width:7;stroke-miterlimit:10;}
	.st32{fill:none;stroke:url(#SVGID_33_);stroke-width:7;stroke-miterlimit:10;}
	.st33{fill:none;stroke:url(#SVGID_34_);stroke-width:7;stroke-miterlimit:10;}
	.st34{fill:none;stroke:url(#SVGID_35_);stroke-width:7;stroke-miterlimit:10;}
	.st35{fill:none;stroke:url(#SVGID_36_);stroke-width:7;stroke-miterlimit:10;}
	.st36{fill:none;stroke:url(#SVGID_37_);stroke-width:7;stroke-miterlimit:10;}
	.st37{fill:none;stroke:url(#SVGID_38_);stroke-width:7;stroke-miterlimit:10;}
	.st38{fill:none;stroke:url(#SVGID_39_);stroke-width:7;stroke-miterlimit:10;}
	.st39{fill:none;stroke:url(#SVGID_40_);stroke-width:7;stroke-miterlimit:10;}
	.st40{fill:none;stroke:url(#SVGID_41_);stroke-width:7;stroke-miterlimit:10;}
	.st41{fill:none;stroke:url(#SVGID_42_);stroke-width:7;stroke-miterlimit:10;}
</style>
<linearGradient id="SVGID_1_" gradientUnits="userSpaceOnUse" x1="-1182.0415" y1="111.4417" x2="-978.4636" y2="111.4417">
	<stop  offset="0" style="stop-color:#7BBB58"/>
	<stop  offset="0" style="stop-color:#312783"/>
	<stop  offset="0.3697" style="stop-color:#4D2681"/>
	<stop  offset="0.7698" style="stop-color:#63247E"/>
	<stop  offset="1" style="stop-color:#6B247D"/>
</linearGradient>
<polygon class="st0" points="-1031.4,26.8 -1129.1,26.8 -1178,111.4 -1129.1,196.1 -1031.4,196.1 -982.5,111.4 "/>
<linearGradient id="SVGID_2_" gradientUnits="userSpaceOnUse" x1="-1020.9918" y1="203.9441" x2="-817.414" y2="203.9441">
	<stop  offset="0" style="stop-color:#7BBB58"/>
	<stop  offset="0" style="stop-color:#312783"/>
	<stop  offset="0.3697" style="stop-color:#4D2681"/>
	<stop  offset="0.7698" style="stop-color:#63247E"/>
	<stop  offset="1" style="stop-color:#6B247D"/>
</linearGradient>
<polygon class="st1" points="-870.3,119.3 -968.1,119.3 -1017,203.9 -968.1,288.6 -870.3,288.6 -821.5,203.9 "/>
<linearGradient id="SVGID_3_" gradientUnits="userSpaceOnUse" x1="-862.6505" y1="110.2019" x2="-659.0726" y2="110.2019">
	<stop  offset="0" style="stop-color:#7BBB58"/>
	<stop  offset="0" style="stop-color:#312783"/>
	<stop  offset="0.3697" style="stop-color:#4D2681"/>
	<stop  offset="0.7698" style="stop-color:#63247E"/>
	<stop  offset="1" style="stop-color:#6B247D"/>
</linearGradient>
<polygon class="st2" points="-712,25.6 -809.7,25.6 -858.6,110.2 -809.7,194.9 -712,194.9 -663.1,110.2 "/>
<linearGradient id="SVGID_4_" gradientUnits="userSpaceOnUse" x1="-701.6008" y1="202.7044" x2="-498.023" y2="202.7044">
	<stop  offset="0" style="stop-color:#7BBB58"/>
	<stop  offset="0" style="stop-color:#312783"/>
	<stop  offset="0.3697" style="stop-color:#4D2681"/>
	<stop  offset="0.7698" style="stop-color:#63247E"/>
	<stop  offset="1" style="stop-color:#6B247D"/>
</linearGradient>
<polygon class="st3" points="-550.9,118.1 -648.7,118.1 -697.6,202.7 -648.7,287.4 -550.9,287.4 -502.1,202.7 "/>
<linearGradient id="SVGID_5_" gradientUnits="userSpaceOnUse" x1="-544.8616" y1="108.6952" x2="-341.2838" y2="108.6952">
	<stop  offset="0" style="stop-color:#7BBB58"/>
	<stop  offset="0" style="stop-color:#312783"/>
	<stop  offset="0.3697" style="stop-color:#4D2681"/>
	<stop  offset="0.7698" style="stop-color:#63247E"/>
	<stop  offset="1" style="stop-color:#6B247D"/>
</linearGradient>
<polygon class="st4" points="-394.2,24 -491.9,24 -540.8,108.7 -491.9,193.3 -394.2,193.3 -345.3,108.7 "/>
<linearGradient id="SVGID_6_" gradientUnits="userSpaceOnUse" x1="-383.8119" y1="201.1977" x2="-180.2341" y2="201.1977">
	<stop  offset="0" style="stop-color:#7BBB58"/>
	<stop  offset="0" style="stop-color:#312783"/>
	<stop  offset="0.3697" style="stop-color:#4D2681"/>
	<stop  offset="0.7698" style="stop-color:#63247E"/>
	<stop  offset="1" style="stop-color:#6B247D"/>
</linearGradient>
<polygon class="st5" points="-233.1,116.5 -330.9,116.5 -379.8,201.2 -330.9,285.8 -233.1,285.8 -184.3,201.2 "/>
<linearGradient id="SVGID_7_" gradientUnits="userSpaceOnUse" x1="-225.4706" y1="107.4554" x2="-21.8928" y2="107.4554">
	<stop  offset="0" style="stop-color:#7BBB58"/>
	<stop  offset="0" style="stop-color:#312783"/>
	<stop  offset="0.3697" style="stop-color:#4D2681"/>
	<stop  offset="0.7698" style="stop-color:#63247E"/>
	<stop  offset="1" style="stop-color:#6B247D"/>
</linearGradient>
<polygon class="st6" points="-74.8,22.8 -172.6,22.8 -221.4,107.5 -172.6,192.1 -74.8,192.1 -25.9,107.5 "/>
<linearGradient id="SVGID_8_" gradientUnits="userSpaceOnUse" x1="-64.4209" y1="199.9579" x2="139.1569" y2="199.9579">
	<stop  offset="0" style="stop-color:#7BBB58"/>
	<stop  offset="0" style="stop-color:#312783"/>
	<stop  offset="0.3697" style="stop-color:#4D2681"/>
	<stop  offset="0.7698" style="stop-color:#63247E"/>
	<stop  offset="1" style="stop-color:#6B247D"/>
</linearGradient>
<polygon class="st7" points="86.2,115.3 -11.5,115.3 -60.4,200 -11.5,284.6 86.2,284.6 135.1,200 "/>
<linearGradient id="SVGID_9_" gradientUnits="userSpaceOnUse" x1="256.1144" y1="198.4512" x2="459.6922" y2="198.4512">
	<stop  offset="0" style="stop-color:#7BBB58"/>
	<stop  offset="0" style="stop-color:#312783"/>
	<stop  offset="0.3697" style="stop-color:#4D2681"/>
	<stop  offset="0.7698" style="stop-color:#63247E"/>
	<stop  offset="1" style="stop-color:#6B247D"/>
</linearGradient>
<polygon class="st8" points="406.8,113.8 309,113.8 260.2,198.5 309,283.1 406.8,283.1 455.7,198.5 "/>
<linearGradient id="SVGID_10_" gradientUnits="userSpaceOnUse" x1="414.4557" y1="104.709" x2="618.0336" y2="104.709">
	<stop  offset="0" style="stop-color:#7BBB58"/>
	<stop  offset="0" style="stop-color:#312783"/>
	<stop  offset="0.3697" style="stop-color:#4D2681"/>
	<stop  offset="0.7698" style="stop-color:#63247E"/>
	<stop  offset="1" style="stop-color:#6B247D"/>
</linearGradient>
<polygon class="st9" points="565.1,20.1 467.4,20.1 418.5,104.7 467.4,189.4 565.1,189.4 614,104.7 "/>
<linearGradient id="SVGID_11_" gradientUnits="userSpaceOnUse" x1="575.5054" y1="197.2114" x2="779.0832" y2="197.2114">
	<stop  offset="0" style="stop-color:#7BBB58"/>
	<stop  offset="0" style="stop-color:#312783"/>
	<stop  offset="0.3697" style="stop-color:#4D2681"/>
	<stop  offset="0.7698" style="stop-color:#63247E"/>
	<stop  offset="1" style="stop-color:#6B247D"/>
</linearGradient>
<polygon class="st10" points="726.2,112.6 628.4,112.6 579.5,197.2 628.4,281.9 726.2,281.9 775,197.2 "/>
<linearGradient id="SVGID_12_" gradientUnits="userSpaceOnUse" x1="-1181.8126" y1="293.395" x2="-978.2348" y2="293.395">
	<stop  offset="0" style="stop-color:#7BBB58"/>
	<stop  offset="0" style="stop-color:#312783"/>
	<stop  offset="0.3697" style="stop-color:#4D2681"/>
	<stop  offset="0.7698" style="stop-color:#63247E"/>
	<stop  offset="1" style="stop-color:#6B247D"/>
</linearGradient>
<polygon class="st11" points="-1031.1,208.7 -1128.9,208.7 -1177.8,293.4 -1128.9,378 -1031.1,378 -982.3,293.4 "/>
<linearGradient id="SVGID_13_" gradientUnits="userSpaceOnUse" x1="-1022.7846" y1="388.0336" x2="-819.2068" y2="388.0336">
	<stop  offset="0" style="stop-color:#7BBB58"/>
	<stop  offset="0" style="stop-color:#312783"/>
	<stop  offset="0.3697" style="stop-color:#4D2681"/>
	<stop  offset="0.7698" style="stop-color:#63247E"/>
	<stop  offset="1" style="stop-color:#6B247D"/>
</linearGradient>
<polygon class="st12" points="-872.1,303.4 -969.9,303.4 -1018.7,388 -969.9,472.7 -872.1,472.7 -823.2,388 "/>
<linearGradient id="SVGID_14_" gradientUnits="userSpaceOnUse" x1="-862.4216" y1="294.9017" x2="-658.8438" y2="294.9017">
	<stop  offset="0" style="stop-color:#7BBB58"/>
	<stop  offset="0" style="stop-color:#312783"/>
	<stop  offset="0.3697" style="stop-color:#4D2681"/>
	<stop  offset="0.7698" style="stop-color:#63247E"/>
	<stop  offset="1" style="stop-color:#6B247D"/>
</linearGradient>
<polygon class="st13" points="-711.8,210.2 -809.5,210.2 -858.4,294.9 -809.5,379.6 -711.8,379.6 -662.9,294.9 "/>
<linearGradient id="SVGID_15_" gradientUnits="userSpaceOnUse" x1="-541.8862" y1="293.395" x2="-338.3084" y2="293.395">
	<stop  offset="0" style="stop-color:#7BBB58"/>
	<stop  offset="0" style="stop-color:#312783"/>
	<stop  offset="0.3697" style="stop-color:#4D2681"/>
	<stop  offset="0.7698" style="stop-color:#63247E"/>
	<stop  offset="1" style="stop-color:#6B247D"/>
</linearGradient>
<polygon class="st14" points="-391.2,208.7 -489,208.7 -537.8,293.4 -489,378 -391.2,378 -342.3,293.4 "/>
<linearGradient id="SVGID_16_" gradientUnits="userSpaceOnUse" x1="-382.8583" y1="385.2871" x2="-179.2805" y2="385.2871">
	<stop  offset="0" style="stop-color:#7BBB58"/>
	<stop  offset="0" style="stop-color:#312783"/>
	<stop  offset="0.3697" style="stop-color:#4D2681"/>
	<stop  offset="0.7698" style="stop-color:#63247E"/>
	<stop  offset="1" style="stop-color:#6B247D"/>
</linearGradient>
<polygon class="st15" points="-232.2,300.6 -329.9,300.6 -378.8,385.3 -329.9,469.9 -232.2,469.9 -183.3,385.3 "/>
<linearGradient id="SVGID_17_" gradientUnits="userSpaceOnUse" x1="-222.4953" y1="292.1552" x2="-18.9174" y2="292.1552">
	<stop  offset="0" style="stop-color:#7BBB58"/>
	<stop  offset="0" style="stop-color:#312783"/>
	<stop  offset="0.3697" style="stop-color:#4D2681"/>
	<stop  offset="0.7698" style="stop-color:#63247E"/>
	<stop  offset="1" style="stop-color:#6B247D"/>
</linearGradient>
<polygon class="st16" points="-71.8,207.5 -169.6,207.5 -218.5,292.2 -169.6,376.8 -71.8,376.8 -23,292.2 "/>
<linearGradient id="SVGID_18_" gradientUnits="userSpaceOnUse" x1="-63.4673" y1="384.0473" x2="140.1105" y2="384.0473">
	<stop  offset="0" style="stop-color:#7BBB58"/>
	<stop  offset="0" style="stop-color:#312783"/>
	<stop  offset="0.3697" style="stop-color:#4D2681"/>
	<stop  offset="0.7698" style="stop-color:#63247E"/>
	<stop  offset="1" style="stop-color:#6B247D"/>
</linearGradient>
<polygon class="st17" points="87.2,299.4 -10.6,299.4 -59.4,384 -10.6,468.7 87.2,468.7 136.1,384 "/>
<linearGradient id="SVGID_19_" gradientUnits="userSpaceOnUse" x1="98.0401" y1="290.6485" x2="301.6179" y2="290.6485">
	<stop  offset="0" style="stop-color:#7BBB58"/>
	<stop  offset="0" style="stop-color:#312783"/>
	<stop  offset="0.3697" style="stop-color:#4D2681"/>
	<stop  offset="0.7698" style="stop-color:#63247E"/>
	<stop  offset="1" style="stop-color:#6B247D"/>
</linearGradient>
<polygon class="st18" points="248.7,206 151,206 102.1,290.6 151,375.3 248.7,375.3 297.6,290.6 "/>
<linearGradient id="SVGID_20_" gradientUnits="userSpaceOnUse" x1="257.0681" y1="382.5406" x2="460.6458" y2="382.5406">
	<stop  offset="0" style="stop-color:#7BBB58"/>
	<stop  offset="0" style="stop-color:#312783"/>
	<stop  offset="0.3697" style="stop-color:#4D2681"/>
	<stop  offset="0.7698" style="stop-color:#63247E"/>
	<stop  offset="1" style="stop-color:#6B247D"/>
</linearGradient>
<polygon class="st19" points="407.7,297.9 310,297.9 261.1,382.5 310,467.2 407.7,467.2 456.6,382.5 "/>
<linearGradient id="SVGID_21_" gradientUnits="userSpaceOnUse" x1="417.4311" y1="289.4087" x2="621.0089" y2="289.4087">
	<stop  offset="0" style="stop-color:#7BBB58"/>
	<stop  offset="0" style="stop-color:#312783"/>
	<stop  offset="0.3697" style="stop-color:#4D2681"/>
	<stop  offset="0.7698" style="stop-color:#63247E"/>
	<stop  offset="1" style="stop-color:#6B247D"/>
</linearGradient>
<polygon class="st20" points="568.1,204.8 470.3,204.8 421.5,289.4 470.3,374.1 568.1,374.1 617,289.4 "/>
<linearGradient id="SVGID_22_" gradientUnits="userSpaceOnUse" x1="576.459" y1="381.3009" x2="780.0369" y2="381.3009">
	<stop  offset="0" style="stop-color:#7BBB58"/>
	<stop  offset="0" style="stop-color:#312783"/>
	<stop  offset="0.3697" style="stop-color:#4D2681"/>
	<stop  offset="0.7698" style="stop-color:#63247E"/>
	<stop  offset="1" style="stop-color:#6B247D"/>
</linearGradient>
<polygon class="st21" points="727.1,296.6 629.4,296.6 580.5,381.3 629.4,466 727.1,466 776,381.3 "/>
<linearGradient id="SVGID_23_" gradientUnits="userSpaceOnUse" x1="734.9911" y1="105.9487" x2="938.5689" y2="105.9487">
	<stop  offset="0" style="stop-color:#7BBB58"/>
	<stop  offset="0" style="stop-color:#312783"/>
	<stop  offset="0.3697" style="stop-color:#4D2681"/>
	<stop  offset="0.7698" style="stop-color:#63247E"/>
	<stop  offset="1" style="stop-color:#6B247D"/>
</linearGradient>
<polygon class="st22" points="885.7,21.3 787.9,21.3 739,105.9 787.9,190.6 885.7,190.6 934.5,105.9 "/>
<linearGradient id="SVGID_24_" gradientUnits="userSpaceOnUse" x1="896.0408" y1="198.4512" x2="1099.6185" y2="198.4512">
	<stop  offset="0" style="stop-color:#7BBB58"/>
	<stop  offset="0" style="stop-color:#312783"/>
	<stop  offset="0.3697" style="stop-color:#4D2681"/>
	<stop  offset="0.7698" style="stop-color:#63247E"/>
	<stop  offset="1" style="stop-color:#6B247D"/>
</linearGradient>
<polygon class="st23" points="1046.7,113.8 949,113.8 900.1,198.5 949,283.1 1046.7,283.1 1095.6,198.5 "/>
<linearGradient id="SVGID_25_" gradientUnits="userSpaceOnUse" x1="1054.3821" y1="104.709" x2="1257.9598" y2="104.709">
	<stop  offset="0" style="stop-color:#7BBB58"/>
	<stop  offset="0" style="stop-color:#312783"/>
	<stop  offset="0.3697" style="stop-color:#4D2681"/>
	<stop  offset="0.7698" style="stop-color:#63247E"/>
	<stop  offset="1" style="stop-color:#6B247D"/>
</linearGradient>
<polygon class="st24" points="1205,20.1 1107.3,20.1 1058.4,104.7 1107.3,189.4 1205,189.4 1253.9,104.7 "/>
<linearGradient id="SVGID_26_" gradientUnits="userSpaceOnUse" x1="1215.4318" y1="197.2114" x2="1419.0095" y2="197.2114">
	<stop  offset="0" style="stop-color:#7BBB58"/>
	<stop  offset="0" style="stop-color:#312783"/>
	<stop  offset="0.3697" style="stop-color:#4D2681"/>
	<stop  offset="0.7698" style="stop-color:#63247E"/>
	<stop  offset="1" style="stop-color:#6B247D"/>
</linearGradient>
<polygon class="st25" points="1366.1,112.6 1268.3,112.6 1219.5,197.2 1268.3,281.9 1366.1,281.9 1415,197.2 "/>
<linearGradient id="SVGID_27_" gradientUnits="userSpaceOnUse" x1="1372.171" y1="103.2023" x2="1575.7488" y2="103.2023">
	<stop  offset="0" style="stop-color:#7BBB58"/>
	<stop  offset="0" style="stop-color:#312783"/>
	<stop  offset="0.3697" style="stop-color:#4D2681"/>
	<stop  offset="0.7698" style="stop-color:#63247E"/>
	<stop  offset="1" style="stop-color:#6B247D"/>
</linearGradient>
<polygon class="st26" points="1522.8,18.6 1425.1,18.6 1376.2,103.2 1425.1,187.9 1522.8,187.9 1571.7,103.2 "/>
<linearGradient id="SVGID_28_" gradientUnits="userSpaceOnUse" x1="1533.2206" y1="195.7047" x2="1736.7985" y2="195.7047">
	<stop  offset="0" style="stop-color:#7BBB58"/>
	<stop  offset="0" style="stop-color:#312783"/>
	<stop  offset="0.3697" style="stop-color:#4D2681"/>
	<stop  offset="0.7698" style="stop-color:#63247E"/>
	<stop  offset="1" style="stop-color:#6B247D"/>
</linearGradient>
<polygon class="st27" points="1683.9,111.1 1586.1,111.1 1537.3,195.7 1586.1,280.4 1683.9,280.4 1732.8,195.7 "/>
<linearGradient id="SVGID_29_" gradientUnits="userSpaceOnUse" x1="1691.562" y1="101.9625" x2="1895.1398" y2="101.9625">
	<stop  offset="0" style="stop-color:#7BBB58"/>
	<stop  offset="0" style="stop-color:#312783"/>
	<stop  offset="0.3697" style="stop-color:#4D2681"/>
	<stop  offset="0.7698" style="stop-color:#63247E"/>
	<stop  offset="1" style="stop-color:#6B247D"/>
</linearGradient>
<polygon class="st28" points="1842.2,17.3 1744.5,17.3 1695.6,102 1744.5,186.6 1842.2,186.6 1891.1,102 "/>
<linearGradient id="SVGID_30_" gradientUnits="userSpaceOnUse" x1="1852.6116" y1="194.465" x2="2056.1895" y2="194.465">
	<stop  offset="0" style="stop-color:#7BBB58"/>
	<stop  offset="0" style="stop-color:#312783"/>
	<stop  offset="0.3697" style="stop-color:#4D2681"/>
	<stop  offset="0.7698" style="stop-color:#63247E"/>
	<stop  offset="1" style="stop-color:#6B247D"/>
</linearGradient>
<polygon class="st29" points="2003.3,109.8 1905.5,109.8 1856.7,194.5 1905.5,279.1 2003.3,279.1 2052.1,194.5 "/>
<linearGradient id="SVGID_31_" gradientUnits="userSpaceOnUse" x1="2173.147" y1="192.9583" x2="2376.7249" y2="192.9583">
	<stop  offset="0" style="stop-color:#7BBB58"/>
	<stop  offset="0" style="stop-color:#312783"/>
	<stop  offset="0.3697" style="stop-color:#4D2681"/>
	<stop  offset="0.7698" style="stop-color:#63247E"/>
	<stop  offset="1" style="stop-color:#6B247D"/>
</linearGradient>
<polygon class="st30" points="2323.8,108.3 2226.1,108.3 2177.2,193 2226.1,277.6 2323.8,277.6 2372.7,193 "/>
<linearGradient id="SVGID_32_" gradientUnits="userSpaceOnUse" x1="2331.4883" y1="99.216" x2="2535.0662" y2="99.216">
	<stop  offset="0" style="stop-color:#7BBB58"/>
	<stop  offset="0" style="stop-color:#312783"/>
	<stop  offset="0.3697" style="stop-color:#4D2681"/>
	<stop  offset="0.7698" style="stop-color:#63247E"/>
	<stop  offset="1" style="stop-color:#6B247D"/>
</linearGradient>
<polygon class="st31" points="2482.2,14.6 2384.4,14.6 2335.5,99.2 2384.4,183.9 2482.2,183.9 2531,99.2 "/>
<linearGradient id="SVGID_33_" gradientUnits="userSpaceOnUse" x1="735.22" y1="287.902" x2="938.7978" y2="287.902">
	<stop  offset="0" style="stop-color:#7BBB58"/>
	<stop  offset="0" style="stop-color:#312783"/>
	<stop  offset="0.3697" style="stop-color:#4D2681"/>
	<stop  offset="0.7698" style="stop-color:#63247E"/>
	<stop  offset="1" style="stop-color:#6B247D"/>
</linearGradient>
<polygon class="st32" points="885.9,203.3 788.1,203.3 739.3,287.9 788.1,372.6 885.9,372.6 934.8,287.9 "/>
<linearGradient id="SVGID_34_" gradientUnits="userSpaceOnUse" x1="894.2479" y1="382.5406" x2="1097.8257" y2="382.5406">
	<stop  offset="0" style="stop-color:#7BBB58"/>
	<stop  offset="0" style="stop-color:#312783"/>
	<stop  offset="0.3697" style="stop-color:#4D2681"/>
	<stop  offset="0.7698" style="stop-color:#63247E"/>
	<stop  offset="1" style="stop-color:#6B247D"/>
</linearGradient>
<polygon class="st33" points="1044.9,297.9 947.2,297.9 898.3,382.5 947.2,467.2 1044.9,467.2 1093.8,382.5 "/>
<linearGradient id="SVGID_35_" gradientUnits="userSpaceOnUse" x1="1213.6389" y1="381.3009" x2="1417.2167" y2="381.3009">
	<stop  offset="0" style="stop-color:#7BBB58"/>
	<stop  offset="0" style="stop-color:#312783"/>
	<stop  offset="0.3697" style="stop-color:#4D2681"/>
	<stop  offset="0.7698" style="stop-color:#63247E"/>
	<stop  offset="1" style="stop-color:#6B247D"/>
</linearGradient>
<polygon class="st34" points="1364.3,296.6 1266.6,296.6 1217.7,381.3 1266.6,466 1364.3,466 1413.2,381.3 "/>
<linearGradient id="SVGID_36_" gradientUnits="userSpaceOnUse" x1="1375.1464" y1="287.902" x2="1578.7241" y2="287.902">
	<stop  offset="0" style="stop-color:#7BBB58"/>
	<stop  offset="0" style="stop-color:#312783"/>
	<stop  offset="0.3697" style="stop-color:#4D2681"/>
	<stop  offset="0.7698" style="stop-color:#63247E"/>
	<stop  offset="1" style="stop-color:#6B247D"/>
</linearGradient>
<polygon class="st35" points="1525.8,203.3 1428.1,203.3 1379.2,287.9 1428.1,372.6 1525.8,372.6 1574.7,287.9 "/>
<linearGradient id="SVGID_37_" gradientUnits="userSpaceOnUse" x1="1534.1743" y1="379.7942" x2="1737.7521" y2="379.7942">
	<stop  offset="0" style="stop-color:#7BBB58"/>
	<stop  offset="0" style="stop-color:#312783"/>
	<stop  offset="0.3697" style="stop-color:#4D2681"/>
	<stop  offset="0.7698" style="stop-color:#63247E"/>
	<stop  offset="1" style="stop-color:#6B247D"/>
</linearGradient>
<polygon class="st36" points="1684.8,295.1 1587.1,295.1 1538.2,379.8 1587.1,464.4 1684.8,464.4 1733.7,379.8 "/>
<linearGradient id="SVGID_38_" gradientUnits="userSpaceOnUse" x1="1694.5374" y1="286.6623" x2="1898.1151" y2="286.6623">
	<stop  offset="0" style="stop-color:#7BBB58"/>
	<stop  offset="0" style="stop-color:#312783"/>
	<stop  offset="0.3697" style="stop-color:#4D2681"/>
	<stop  offset="0.7698" style="stop-color:#63247E"/>
	<stop  offset="1" style="stop-color:#6B247D"/>
</linearGradient>
<polygon class="st37" points="1845.2,202 1747.5,202 1698.6,286.7 1747.5,371.3 1845.2,371.3 1894.1,286.7 "/>
<linearGradient id="SVGID_39_" gradientUnits="userSpaceOnUse" x1="1853.5653" y1="378.5544" x2="2057.1431" y2="378.5544">
	<stop  offset="0" style="stop-color:#7BBB58"/>
	<stop  offset="0" style="stop-color:#312783"/>
	<stop  offset="0.3697" style="stop-color:#4D2681"/>
	<stop  offset="0.7698" style="stop-color:#63247E"/>
	<stop  offset="1" style="stop-color:#6B247D"/>
</linearGradient>
<polygon class="st38" points="2004.2,293.9 1906.5,293.9 1857.6,378.6 1906.5,463.2 2004.2,463.2 2053.1,378.6 "/>
<linearGradient id="SVGID_40_" gradientUnits="userSpaceOnUse" x1="2015.0726" y1="285.1556" x2="2218.6504" y2="285.1556">
	<stop  offset="0" style="stop-color:#7BBB58"/>
	<stop  offset="0" style="stop-color:#312783"/>
	<stop  offset="0.3697" style="stop-color:#4D2681"/>
	<stop  offset="0.7698" style="stop-color:#63247E"/>
	<stop  offset="1" style="stop-color:#6B247D"/>
</linearGradient>
<polygon class="st39" points="2165.7,200.5 2068,200.5 2019.1,285.2 2068,369.8 2165.7,369.8 2214.6,285.2 "/>
<linearGradient id="SVGID_41_" gradientUnits="userSpaceOnUse" x1="2174.1006" y1="377.0477" x2="2377.6785" y2="377.0477">
	<stop  offset="0" style="stop-color:#7BBB58"/>
	<stop  offset="0" style="stop-color:#312783"/>
	<stop  offset="0.3697" style="stop-color:#4D2681"/>
	<stop  offset="0.7698" style="stop-color:#63247E"/>
	<stop  offset="1" style="stop-color:#6B247D"/>
</linearGradient>
<polygon class="st40" points="2324.8,292.4 2227,292.4 2178.1,377 2227,461.7 2324.8,461.7 2373.6,377 "/>
<linearGradient id="SVGID_42_" gradientUnits="userSpaceOnUse" x1="2334.4636" y1="283.9158" x2="2538.0415" y2="283.9158">
	<stop  offset="0" style="stop-color:#7BBB58"/>
	<stop  offset="0" style="stop-color:#312783"/>
	<stop  offset="0.3697" style="stop-color:#4D2681"/>
	<stop  offset="0.7698" style="stop-color:#63247E"/>
	<stop  offset="1" style="stop-color:#6B247D"/>
</linearGradient>
<polygon class="st41" points="2485.1,199.3 2387.4,199.3 2338.5,283.9 2387.4,368.6 2485.1,368.6 2534,283.9 "/>
</svg>
